<svg width="14" height="14" viewBox="0 0 14 14" fill="none" xmlns="http://www.w3.org/2000/svg">
<g clip-path="url(#clip0_224_6802)">
<path d="M7.00035 13.9997C10.8661 13.9997 14.0002 10.8654 14.0002 6.99986C14.0002 3.13435 10.8664 0 7.00035 0C3.13429 0 0.000488281 3.13463 0.000488281 6.99986C0.000488281 10.8651 3.13457 13.9997 7.00035 13.9997Z" fill="#F0F0F0"/>
<path fill-rule="evenodd" clip-rule="evenodd" d="M12.9659 3.34486H6.68568V1.51697H11.3521C11.9928 2.02711 12.5391 2.64581 12.9659 3.34486ZM14.0003 6.99983H6.6895V5.17248H13.7594C13.9198 5.76834 14.0008 6.38276 14.0003 6.99983ZM7.0004 13.9997C8.58293 14.0033 10.1194 13.467 11.3559 12.4794H2.64517C3.88151 13.4672 5.41791 14.0035 7.0004 13.9997ZM12.9735 10.6556H1.02727C0.678836 10.0874 0.414251 9.47183 0.241699 8.828H13.7591C13.5866 9.47185 13.322 10.0874 12.9735 10.6556Z" fill="#D80027"/>
<path fill-rule="evenodd" clip-rule="evenodd" d="M3.25023 1.08936H3.24394V1.09373L3.25023 1.08936ZM3.25023 1.08936H3.88323L3.28687 1.51728L3.51245 2.21727L2.91746 1.78935L2.3263 2.21727L2.52071 1.61326C1.99821 2.05057 1.54233 2.56181 1.1675 3.1308H1.37366L0.996328 3.40424L0.82516 3.70501L1.00398 4.26117L0.665749 4.01508L0.432511 4.55812L0.626922 5.16787H1.36519L0.778403 5.60017L1.00398 6.30016L0.408996 5.87223L0.0590031 6.12871C0.0199467 6.41745 0.000397526 6.7085 0.000488598 6.99987H7.00035V5.89587e-06C5.67203 -0.00172168 4.37089 0.37624 3.25023 1.08936ZM3.51108 6.2966L3.51628 6.3007H3.51245L3.51108 6.2966ZM3.2866 5.60044L3.51108 6.2966L2.91719 5.87278L2.3222 6.3007L2.54778 5.60072L1.95279 5.1728H2.69106L2.91664 4.47281L3.14222 5.1728H3.88049L3.2866 5.60044ZM3.2907 3.56283L3.51628 4.26281L2.92129 3.83489L2.3263 4.26281L2.55188 3.56283L1.9569 3.13491H2.69516L2.92074 2.43492L3.14633 3.13491H3.88459L3.2907 3.56283ZM5.43331 5.87278L6.0283 6.3007L5.80272 5.60072L6.3988 5.1728H5.66053L5.43495 4.47281L5.20937 5.1728H4.4711L5.06609 5.60072L4.84051 6.3007L5.43331 5.87278ZM5.80272 3.56283L6.0283 4.26281L5.43331 3.83489L4.83832 4.26281L5.06391 3.56283L4.46892 3.13491H5.20718L5.43277 2.43492L5.65835 3.13491H6.39661L5.80272 3.56283ZM6.0283 2.22492L5.80272 1.52494L6.3988 1.09702H5.66053L5.43495 0.397029L5.20937 1.09702H4.4711L5.06609 1.52494L4.84051 2.22492L5.4355 1.797L6.0283 2.22492Z" fill="#0052B4"/>
</g>
<defs>
<clipPath id="clip0_224_6802">
<rect width="14" height="14" fill="white"/>
</clipPath>
</defs>
</svg>
