<svg width="181" height="215" viewBox="0 0 181 215" fill="none" xmlns="http://www.w3.org/2000/svg">
<path d="M122.865 146.2H65.135C39.1449 146.2 18 166.162 18 190.699V205.7C18 210.615 22.2206 214.6 27.4271 214.6H160.573C165.779 214.6 170 210.615 170 205.7V190.699C170 166.162 148.855 146.2 122.865 146.2Z" fill="url(#paint0_linear_14_25)"/>
<path d="M93.495 40C71.258 40.0107 53.228 58.0413 53.228 80.288V99.269C53.228 100.273 53.697 101.212 54.498 101.821L71.813 114.962V125.797C71.813 127.57 73.244 129 75.016 129H77.589C79.361 129 80.791 127.57 80.791 125.797V121.399C80.791 120.278 81.699 119.371 82.819 119.371C83.94 119.371 84.848 120.278 84.848 121.399V125.797C84.848 127.57 86.278 129 88.05 129H88.157C89.929 129 91.36 127.57 91.36 125.797V121.399C91.36 120.278 92.267 119.371 93.388 119.371H93.602C94.722 119.371 95.63 120.278 95.63 121.399V125.797C95.63 127.57 97.06 129 98.832 129H98.939C100.711 129 102.142 127.57 102.142 125.797V121.399C102.142 120.278 103.049 119.371 104.17 119.371C105.291 119.371 106.198 120.278 106.198 121.399V125.797C106.198 127.57 107.629 129 109.401 129H111.984C113.757 129 115.187 127.57 115.187 125.797V114.951L132.502 101.81C133.303 101.202 133.773 100.262 133.773 99.259V80.278C133.762 58.0413 115.731 40.0107 93.495 40ZM76.66 99.579C70.532 99.579 65.558 94.604 65.558 88.477C65.558 82.349 70.532 77.374 76.66 77.374C82.787 77.374 87.762 82.349 87.762 88.477C87.762 94.615 82.787 99.579 76.66 99.579ZM96.655 107.745H90.346C88.883 107.745 87.954 106.176 88.659 104.895L91.819 99.163C92.545 97.839 94.456 97.839 95.181 99.163L98.341 104.895C99.035 106.176 98.107 107.745 96.655 107.745ZM110.33 99.579C104.202 99.579 99.227 94.604 99.227 88.477C99.227 82.349 104.202 77.374 110.33 77.374C116.457 77.374 121.432 82.349 121.432 88.477C121.432 94.615 116.468 99.579 110.33 99.579Z" fill="url(#paint1_linear_14_25)"/>
<path d="M93.5 175C141.825 175 181 135.825 181 87.5C181 39.1751 141.825 0 93.5 0C45.1751 0 6 39.1751 6 87.5C6 135.825 45.1751 175 93.5 175Z" fill="url(#paint2_linear_14_25)" fill-opacity="0.1"/>
<path d="M93.5 174.5C141.549 174.5 180.5 135.549 180.5 87.5C180.5 39.4512 141.549 0.5 93.5 0.5C45.4512 0.5 6.5 39.4512 6.5 87.5C6.5 135.549 45.4512 174.5 93.5 174.5Z" stroke="url(#paint3_linear_14_25)" stroke-opacity="0.4"/>
<path d="M31 149.5L1 179.5" stroke="url(#paint4_linear_14_25)" stroke-opacity="0.4"/>
<defs>
<linearGradient id="paint0_linear_14_25" x1="170" y1="214.6" x2="138.64" y2="110.023" gradientUnits="userSpaceOnUse">
<stop stop-color="#273DD2"/>
<stop offset="0.775" stop-color="#6BB9EC"/>
<stop offset="1" stop-color="#7AC4F4"/>
</linearGradient>
<linearGradient id="paint1_linear_14_25" x1="133.773" y1="129" x2="62.961" y2="32.833" gradientUnits="userSpaceOnUse">
<stop stop-color="#273DD2"/>
<stop offset="0.775" stop-color="#6BB9EC"/>
<stop offset="1" stop-color="#7AC4F4"/>
</linearGradient>
<linearGradient id="paint2_linear_14_25" x1="6" y1="0" x2="214.724" y2="112.345" gradientUnits="userSpaceOnUse">
<stop stop-color="white"/>
<stop offset="1" stop-color="white" stop-opacity="0.2"/>
</linearGradient>
<linearGradient id="paint3_linear_14_25" x1="6" y1="2.05561e-06" x2="214.724" y2="112.345" gradientUnits="userSpaceOnUse">
<stop stop-color="white" stop-opacity="0.8"/>
<stop offset="1" stop-color="white" stop-opacity="0.2"/>
</linearGradient>
<linearGradient id="paint4_linear_14_25" x1="1" y1="149.5" x2="36.7812" y2="168.759" gradientUnits="userSpaceOnUse">
<stop stop-color="white" stop-opacity="0.8"/>
<stop offset="1" stop-color="white" stop-opacity="0.2"/>
</linearGradient>
</defs>
</svg>
