<svg width="678" height="240" viewBox="0 0 678 240" fill="none" xmlns="http://www.w3.org/2000/svg">
<path d="M173.256 142.6V168.2H158.256V192H130.456V168.2H64.2559V142.6L110.856 52H140.456L94.0559 142.6H130.456V109.4H158.256V142.6H173.256Z" fill="white"/>
<path fill-rule="evenodd" clip-rule="evenodd" d="M249.435 78.1256C266.662 71.6806 284.54 68.4581 302.993 68.4581L303.137 68.5155C314.558 68.5728 325.806 69.749 336.959 72.2543C346.981 74.5015 356.638 77.7335 365.923 81.874C377.602 87.0855 388.381 93.7886 398.355 101.62C399.849 102.749 400.434 104.125 399.849 105.818C399.536 106.685 399.231 107.557 398.925 108.431C397.934 111.268 396.938 114.117 395.634 116.815C387.796 132.679 375.255 143.627 357.865 149.307C356.207 149.824 354.818 149.872 353.649 148.542C352.48 147.156 352.269 145.626 352.959 144.086C354.828 139.946 356.054 135.7 356.696 131.196C357.874 122.648 356.648 114.462 353.017 106.688C348.054 96.0453 340.053 88.2138 328.795 83.71C319.138 79.8659 309.164 79.4643 299.19 82.4286C290.806 84.9339 283.821 89.4856 278.274 96.0358C268.616 107.396 265.359 120.391 268.348 134.715C270.695 145.817 276.674 154.873 286.169 161.729C300.09 171.807 315.717 177.535 333.165 178.711C349.97 179.84 365.865 176.56 380.591 168.786C399.849 158.65 413.503 143.666 421.771 124.168C423.355 120.387 424.539 116.423 425.72 112.465C426.09 111.229 426.459 109.993 426.84 108.763C427.752 105.833 428.532 102.84 429.308 99.8593C429.535 98.9879 429.762 98.1176 429.992 97.2502C430.413 95.6628 430.308 94.1329 428.976 92.8515C421.187 85.2782 412.755 78.3742 403.634 72.2352C393.181 65.1782 382.028 59.2974 370.244 54.5354C357.98 49.5726 345.285 45.9389 332.158 43.9404C324.637 42.7642 317.068 42.1426 309.489 41.7888C304.941 41.5666 300.37 41.7048 295.808 41.8428C293.892 41.9007 291.978 41.9585 290.068 41.9897C287.884 42.047 286.284 40.9665 285.91 39.1783C285.489 37.3806 286.447 35.9558 288.631 35.2865C289.259 35.0933 289.887 34.8992 290.515 34.7049C294.21 33.5624 297.917 32.4164 301.7 31.452C316.685 27.6175 331.948 26.1832 347.469 27.0533C355.211 27.5123 362.837 28.4303 370.359 30.0177C379.116 31.8058 387.701 34.4163 395.969 37.744C403.337 40.7179 410.532 44.1412 417.258 48.339C420.723 50.525 424.127 52.8339 427.541 55.1504C428.593 55.8638 429.645 56.5779 430.701 57.2893C432.828 58.7237 435.022 58.5133 436.191 56.5722C436.727 55.702 436.938 54.5258 436.938 53.5027C437.106 49.8144 437.231 46.111 437.355 42.408C437.472 38.9202 437.59 35.4327 437.743 31.9588C437.791 30.1133 437.044 28.8893 435.501 27.9139C426.753 22.3869 417.575 17.5771 407.974 13.5896C396.017 8.6746 383.696 4.84012 370.895 2.79379C363.106 1.56981 355.268 0.546646 347.373 0.135467C340.457 -0.194514 333.499 0.140935 326.577 0.474644C326.077 0.498738 325.577 0.522822 325.078 0.546646C315.257 1.00564 305.657 2.74598 296.162 5.05049C285.862 7.55581 275.888 10.9887 266.23 15.2343C257.914 18.868 249.962 23.2189 242.335 28.0287C241.214 28.7459 240.256 29.5682 240.256 31.0504C240.332 33.2908 240.391 35.5265 240.451 37.7592C240.599 43.3786 240.748 48.9785 241.166 54.5832C241.497 59.2797 242.105 63.9489 242.715 68.6285C242.989 70.7327 243.264 72.839 243.513 74.9509C243.887 78.0204 246.292 79.3018 249.435 78.1256ZM312.067 107.348C321.983 107.3 330.041 115.332 330.041 125.411H330.099C330.146 135.088 322.089 143.121 312.278 143.168C302.304 143.216 294.198 135.299 294.198 125.363C294.198 115.428 302.093 107.396 312.067 107.348Z" fill="url(#paint0_linear_64_22414)"/>
<path d="M303.125 192.514C302.539 192.338 301.99 192.174 301.499 192.022L301.556 192.06C299.314 191.955 298.145 192.931 297.341 194.26C296.382 195.847 296.861 197.281 297.982 198.611C299.657 200.536 301.316 202.483 302.976 204.433C306.388 208.44 309.809 212.458 313.399 216.31C321.083 224.658 329.399 232.327 338.204 239.595C338.846 240.111 339.22 240.159 339.91 239.595C354.741 227.211 368.184 213.604 380.084 198.563C381.521 196.775 381.578 195.292 380.352 193.705C379.068 192.07 377.362 191.611 375.283 192.328C365.357 195.857 355.057 197.855 344.499 198.314C331.478 198.878 318.735 197.492 306.356 193.504C305.243 193.148 304.13 192.815 303.125 192.514Z" fill="url(#paint1_linear_64_22414)"/>
<path d="M610.745 142.6V168.2H595.745V192H567.945V168.2H501.745V142.6L548.345 52H577.945L531.545 142.6H567.945V109.4H595.745V142.6H610.745Z" fill="white"/>
<defs>
<linearGradient id="paint0_linear_64_22414" x1="437.745" y1="240" x2="242.146" y2="-1.53053" gradientUnits="userSpaceOnUse">
<stop stop-color="#273DD2"/>
<stop offset="0.775" stop-color="#6BB9EC"/>
<stop offset="1" stop-color="#7AC4F4"/>
</linearGradient>
<linearGradient id="paint1_linear_64_22414" x1="437.745" y1="240" x2="242.146" y2="-1.53053" gradientUnits="userSpaceOnUse">
<stop stop-color="#273DD2"/>
<stop offset="0.775" stop-color="#6BB9EC"/>
<stop offset="1" stop-color="#7AC4F4"/>
</linearGradient>
</defs>
</svg>
