<svg width="101" height="100" viewBox="0 0 101 100" fill="none" xmlns="http://www.w3.org/2000/svg">
<path fill-rule="evenodd" clip-rule="evenodd" d="M37.4243 32.2795C37.4243 25.5085 43.2153 20 50.3334 20C57.4515 20 63.2425 25.5086 63.2425 32.2795C63.2425 36.8721 60.5778 40.8833 56.6421 42.9892C54.7754 43.988 52.6234 44.5589 50.3334 44.5589C48.0434 44.5589 45.8913 43.988 44.0247 42.9892C40.0892 40.8833 37.4243 36.8722 37.4243 32.2795ZM43.76 47.0734H56.9066C62.8254 47.0734 67.6407 51.6538 67.6407 57.2839V77.9576C67.6407 79.0855 66.6796 79.9997 65.4939 79.9997H35.1727C33.987 79.9997 33.0259 79.0853 33.0259 77.9576V57.2839C33.0259 51.6538 37.8412 47.0734 43.76 47.0734Z" fill="url(#paint0_linear_113_6495)"/>
<path opacity="0.4" fill-rule="evenodd" clip-rule="evenodd" d="M18.011 40.6287C18.011 35.5649 22.3418 31.4453 27.6653 31.4453C32.9887 31.4453 37.3196 35.565 37.3196 40.6287C37.3196 42.1871 36.9081 43.6555 36.1849 44.9426C35.1544 46.7765 33.4892 48.2406 31.4696 49.0677C30.3015 49.5459 29.0156 49.812 27.6653 49.812C22.3418 49.812 18.011 45.6924 18.011 40.6287ZM29.6387 52.3929C29.0526 53.9194 28.7323 55.5667 28.7323 57.2838V77.9576C28.7323 78.6735 28.8633 79.3605 29.1017 79.9998H19.5945C16.0431 79.9998 13.1541 77.2515 13.1541 73.8735V62.6033C13.1541 56.9733 17.9694 52.3929 23.8881 52.3929H29.6387Z" fill="url(#paint1_linear_113_6495)"/>
<path opacity="0.4" fill-rule="evenodd" clip-rule="evenodd" d="M63.3472 40.6287C63.3472 35.5649 67.678 31.4453 73.0015 31.4453C78.3249 31.4453 82.6557 35.5649 82.6557 40.6287C82.6557 45.6924 78.3249 49.812 73.0015 49.812C71.6511 49.812 70.3652 49.5459 69.1971 49.0677C67.1775 48.2407 65.5123 46.7766 64.4819 44.9426C63.7586 43.6556 63.3472 42.1872 63.3472 40.6287ZM71.0281 52.3927H76.7787C82.6975 52.3927 87.5128 56.9731 87.5126 62.6031V73.8732C87.5126 77.2512 84.6235 79.9995 81.0722 79.9995H71.5651C71.8035 79.3605 71.9345 78.6733 71.9345 77.9574V57.2837C71.9345 55.5667 71.6142 53.9193 71.0281 52.3927Z" fill="url(#paint2_linear_113_6495)"/>
<defs>
<linearGradient id="paint0_linear_113_6495" x1="67.6407" y1="79.9997" x2="18.1644" y2="37.1663" gradientUnits="userSpaceOnUse">
<stop stop-color="#273DD2"/>
<stop offset="0.775" stop-color="#6BB9EC"/>
<stop offset="1" stop-color="#7AC4F4"/>
</linearGradient>
<linearGradient id="paint1_linear_113_6495" x1="37.3196" y1="79.9998" x2="-1.47164" y2="51.0282" gradientUnits="userSpaceOnUse">
<stop stop-color="#273DD2"/>
<stop offset="0.775" stop-color="#6BB9EC"/>
<stop offset="1" stop-color="#7AC4F4"/>
</linearGradient>
<linearGradient id="paint2_linear_113_6495" x1="87.5126" y1="79.9995" x2="48.7216" y2="51.028" gradientUnits="userSpaceOnUse">
<stop stop-color="#273DD2"/>
<stop offset="0.775" stop-color="#6BB9EC"/>
<stop offset="1" stop-color="#7AC4F4"/>
</linearGradient>
</defs>
</svg>
