<svg width="350" height="350" viewBox="0 0 350 350" fill="none" xmlns="http://www.w3.org/2000/svg">
<mask id="mask0_233_12864" style="mask-type:alpha" maskUnits="userSpaceOnUse" x="47" y="56" width="271" height="237">
<path d="M91.8333 56.6667L47.5 123.75L182.25 292.917L317.583 123.75L272.083 56.6667H91.8333Z" fill="url(#paint0_linear_233_12864)"/>
</mask>
<g mask="url(#mask0_233_12864)">
<path d="M27.2951 173.578L22.9998 180.134L36.0553 196.667L49.1673 180.134L44.759 173.578H27.2951Z" fill="url(#paint1_linear_233_12864)"/>
<path d="M39.6093 142.793L35.314 149.349L48.3695 165.882L61.4815 149.349L57.0732 142.793H39.6093Z" fill="url(#paint2_linear_233_12864)"/>
<path d="M51.9235 112.007L47.6282 118.563L60.6837 135.096L73.7957 118.563L69.3874 112.007H51.9235Z" fill="url(#paint3_linear_233_12864)"/>
<path d="M64.2377 81.2218L59.9424 87.778L72.9979 104.311L86.11 87.778L81.7016 81.2218H64.2377Z" fill="url(#paint4_linear_233_12864)"/>
<path d="M76.5517 50.4364L72.2563 56.9925L85.3119 73.5254L98.4239 56.9925L94.0156 50.4364H76.5517Z" fill="url(#paint5_linear_233_12864)"/>
<path d="M45.7663 196.667L41.4709 203.223L54.5265 219.756L67.6385 203.223L63.2302 196.667H45.7663Z" fill="url(#paint6_linear_233_12864)"/>
<path d="M58.0802 165.882L53.7849 172.438L66.8404 188.971L79.9525 172.438L75.5441 165.882H58.0802Z" fill="url(#paint7_linear_233_12864)"/>
<path d="M70.3944 135.096L66.0991 141.652L79.1546 158.185L92.2667 141.652L87.8583 135.096H70.3944Z" fill="url(#paint8_linear_233_12864)"/>
<path d="M82.7089 104.311L78.4136 110.867L91.4691 127.4L104.581 110.867L100.173 104.311H82.7089Z" fill="url(#paint9_linear_233_12864)"/>
<path d="M95.0229 73.5253L90.7275 80.0815L103.783 96.6143L116.895 80.0815L112.487 73.5253H95.0229Z" fill="url(#paint10_linear_233_12864)"/>
<path d="M64.2377 219.756L59.9424 226.312L72.9979 242.845L86.11 226.312L81.7016 219.756H64.2377Z" fill="url(#paint11_linear_233_12864)"/>
<path d="M76.5517 188.97L72.2563 195.527L85.3119 212.059L98.4239 195.527L94.0156 188.97H76.5517Z" fill="url(#paint12_linear_233_12864)"/>
<path d="M88.8659 158.185L84.5706 164.741L97.6261 181.274L110.738 164.741L106.33 158.185H88.8659Z" fill="url(#paint13_linear_233_12864)"/>
<path d="M101.18 127.4L96.8848 133.956L109.94 150.489L123.052 133.956L118.644 127.4H101.18Z" fill="url(#paint14_linear_233_12864)"/>
<path d="M113.494 96.6144L109.199 103.171L122.255 119.703L135.367 103.171L130.958 96.6144H113.494Z" fill="url(#paint15_linear_233_12864)"/>
<path d="M82.7089 242.845L78.4136 249.401L91.4691 265.934L104.581 249.401L100.173 242.845H82.7089Z" fill="url(#paint16_linear_233_12864)"/>
<path d="M95.0229 212.059L90.7275 218.616L103.783 235.148L116.895 218.616L112.487 212.059H95.0229Z" fill="url(#paint17_linear_233_12864)"/>
<path d="M107.337 181.274L103.042 187.83L116.097 204.363L129.209 187.83L124.801 181.274H107.337Z" fill="url(#paint18_linear_233_12864)"/>
<path d="M119.651 150.489L115.356 157.045L128.411 173.578L141.523 157.045L137.115 150.489H119.651Z" fill="url(#paint19_linear_233_12864)"/>
<path d="M131.965 119.703L127.67 126.259L140.726 142.792L153.838 126.259L149.429 119.703H131.965Z" fill="url(#paint20_linear_233_12864)"/>
<path d="M101.18 265.934L96.8848 272.49L109.94 289.023L123.052 272.49L118.644 265.934H101.18Z" fill="url(#paint21_linear_233_12864)"/>
<path d="M113.494 235.149L109.199 241.705L122.255 258.238L135.367 241.705L130.958 235.149H113.494Z" fill="url(#paint22_linear_233_12864)"/>
<path d="M125.808 204.364L121.513 210.92L134.568 227.453L147.681 210.92L143.272 204.364H125.808Z" fill="url(#paint23_linear_233_12864)"/>
<path d="M138.122 173.578L133.827 180.134L146.882 196.667L159.994 180.134L155.586 173.578H138.122Z" fill="url(#paint24_linear_233_12864)"/>
<path d="M150.437 142.793L146.141 149.349L159.197 165.882L172.309 149.349L167.901 142.793H150.437Z" fill="url(#paint25_linear_233_12864)"/>
<path d="M119.651 289.023L115.356 295.579L128.411 312.112L141.523 295.579L137.115 289.023H119.651Z" fill="url(#paint26_linear_233_12864)"/>
<path d="M131.965 258.238L127.67 264.794L140.726 281.327L153.838 264.794L149.429 258.238H131.965Z" fill="url(#paint27_linear_233_12864)"/>
<path d="M144.279 227.452L139.984 234.008L153.04 250.541L166.152 234.008L161.743 227.452H144.279Z" fill="url(#paint28_linear_233_12864)"/>
<path d="M156.594 196.667L152.298 203.223L165.354 219.756L178.466 203.223L174.058 196.667H156.594Z" fill="url(#paint29_linear_233_12864)"/>
<path d="M168.908 165.882L164.612 172.438L177.668 188.971L190.78 172.438L186.372 165.882H168.908Z" fill="url(#paint30_linear_233_12864)"/>
<path d="M150.437 281.327L146.141 287.883L159.197 304.416L172.309 287.883L167.901 281.327H150.437Z" fill="url(#paint31_linear_233_12864)"/>
<path d="M162.751 250.541L158.455 257.098L171.511 273.63L184.623 257.098L180.215 250.541H162.751Z" fill="url(#paint32_linear_233_12864)"/>
<path d="M175.065 219.756L170.77 226.312L183.825 242.845L196.937 226.312L192.529 219.756H175.065Z" fill="url(#paint33_linear_233_12864)"/>
<path d="M187.379 188.97L183.083 195.527L196.139 212.059L209.251 195.527L204.843 188.97H187.379Z" fill="url(#paint34_linear_233_12864)"/>
<path d="M181.222 273.63L176.927 280.186L189.982 296.719L203.094 280.186L198.686 273.63H181.222Z" fill="url(#paint35_linear_233_12864)"/>
<path d="M193.536 242.845L189.241 249.401L202.296 265.934L215.409 249.401L211 242.845H193.536Z" fill="url(#paint36_linear_233_12864)"/>
<path d="M205.85 212.059L201.555 218.616L214.61 235.148L227.723 218.616L223.314 212.059H205.85Z" fill="url(#paint37_linear_233_12864)"/>
<path d="M212.007 265.934L207.712 272.49L220.767 289.023L233.879 272.49L229.471 265.934H212.007Z" fill="url(#paint38_linear_233_12864)"/>
<path d="M224.321 235.149L220.026 241.705L233.082 258.238L246.194 241.705L241.785 235.149H224.321Z" fill="url(#paint39_linear_233_12864)"/>
<path d="M116.572 48.8971L112.277 55.4533L125.333 71.9862L138.445 55.4533L134.036 48.8971H116.572Z" fill="url(#paint40_linear_233_12864)"/>
<path d="M135.044 71.9864L130.749 78.5425L143.804 95.0754L156.916 78.5425L152.508 71.9864H135.044Z" fill="url(#paint41_linear_233_12864)"/>
<path d="M147.358 41.2009L143.062 47.7571L156.118 64.29L169.23 47.7571L164.822 41.2009H147.358Z" fill="url(#paint42_linear_233_12864)"/>
<path d="M153.515 95.0753L149.22 101.631L162.275 118.164L175.387 101.631L170.979 95.0753H153.515Z" fill="url(#paint43_linear_233_12864)"/>
<path d="M165.829 64.2899L161.534 70.846L174.589 87.3789L187.701 70.846L183.293 64.2899H165.829Z" fill="url(#paint44_linear_233_12864)"/>
<path d="M171.986 118.164L167.691 124.721L180.746 141.253L193.858 124.721L189.45 118.164H171.986Z" fill="url(#paint45_linear_233_12864)"/>
<path d="M184.3 87.379L180.005 93.9351L193.061 110.468L206.173 93.9351L201.764 87.379H184.3Z" fill="url(#paint46_linear_233_12864)"/>
<path d="M196.614 56.5935L192.319 63.1497L205.375 79.6825L218.487 63.1497L214.078 56.5935H196.614Z" fill="url(#paint47_linear_233_12864)"/>
<path d="M190.457 141.253L186.162 147.81L199.217 164.342L212.329 147.81L207.921 141.253H190.457Z" fill="url(#paint48_linear_233_12864)"/>
<path d="M202.772 110.468L198.476 117.024L211.532 133.557L224.644 117.024L220.236 110.468H202.772Z" fill="url(#paint49_linear_233_12864)"/>
<path d="M215.086 79.6826L210.79 86.2387L223.846 102.772L236.958 86.2387L232.549 79.6826H215.086Z" fill="url(#paint50_linear_233_12864)"/>
<path d="M227.4 48.8971L223.104 55.4533L236.16 71.9862L249.272 55.4533L244.864 48.8971H227.4Z" fill="url(#paint51_linear_233_12864)"/>
<path d="M208.928 164.342L204.633 170.899L217.689 187.431L230.801 170.899L226.392 164.342H208.928Z" fill="url(#paint52_linear_233_12864)"/>
<path d="M221.243 133.557L216.948 140.113L230.003 156.646L243.115 140.113L238.707 133.557H221.243Z" fill="url(#paint53_linear_233_12864)"/>
<path d="M233.557 102.772L229.261 109.328L242.317 125.861L255.429 109.328L251.021 102.772H233.557Z" fill="url(#paint54_linear_233_12864)"/>
<path d="M245.871 71.9864L241.576 78.5425L254.631 95.0754L267.743 78.5425L263.335 71.9864H245.871Z" fill="url(#paint55_linear_233_12864)"/>
<path d="M258.185 41.2009L253.89 47.7571L266.945 64.29L280.057 47.7571L275.649 41.2009H258.185Z" fill="url(#paint56_linear_233_12864)"/>
<path d="M227.4 187.432L223.104 193.988L236.16 210.521L249.272 193.988L244.864 187.432H227.4Z" fill="url(#paint57_linear_233_12864)"/>
<path d="M239.714 156.646L235.418 163.202L248.474 179.735L261.586 163.202L257.178 156.646H239.714Z" fill="url(#paint58_linear_233_12864)"/>
<path d="M252.028 125.861L247.733 132.417L260.788 148.95L273.9 132.417L269.492 125.861H252.028Z" fill="url(#paint59_linear_233_12864)"/>
<path d="M264.342 95.0753L260.047 101.631L273.103 118.164L286.215 101.631L281.806 95.0753H264.342Z" fill="url(#paint60_linear_233_12864)"/>
<path d="M276.656 64.2899L272.361 70.846L285.416 87.3789L298.528 70.846L294.12 64.2899H276.656Z" fill="url(#paint61_linear_233_12864)"/>
<path d="M245.871 210.52L241.576 217.076L254.631 233.609L267.743 217.076L263.335 210.52H245.871Z" fill="url(#paint62_linear_233_12864)"/>
<path d="M258.185 179.735L253.89 186.291L266.945 202.824L280.057 186.291L275.649 179.735H258.185Z" fill="url(#paint63_linear_233_12864)"/>
<path d="M270.499 148.95L266.204 155.506L279.26 172.039L292.372 155.506L287.963 148.95H270.499Z" fill="url(#paint64_linear_233_12864)"/>
<path d="M282.813 118.164L278.518 124.721L291.574 141.253L304.686 124.721L300.277 118.164H282.813Z" fill="url(#paint65_linear_233_12864)"/>
<path d="M295.128 87.379L290.832 93.9351L303.888 110.468L317 93.9351L312.591 87.379H295.128Z" fill="url(#paint66_linear_233_12864)"/>
</g>
<path fill-rule="evenodd" clip-rule="evenodd" d="M47.5 123.75L91.8333 56.6667H272.083L317.583 123.75L182.25 292.917L166.544 273.199C185.769 257.148 198 233.003 198 206C198 157.675 158.825 118.5 110.5 118.5C90.592 118.5 72.2368 125.149 57.5336 136.346L47.5 123.75Z" fill="url(#paint67_linear_233_12864)"/>
<circle cx="110.5" cy="206" r="87.5" fill="url(#paint68_linear_233_12864)" fill-opacity="0.1"/>
<circle cx="110.5" cy="206" r="87" stroke="url(#paint69_linear_233_12864)" stroke-opacity="0.4"/>
<path d="M48 268L18 298" stroke="url(#paint70_linear_233_12864)" stroke-opacity="0.4"/>
<defs>
<linearGradient id="paint0_linear_233_12864" x1="317.583" y1="292.917" x2="146.3" y2="-0.924896" gradientUnits="userSpaceOnUse">
<stop stop-color="#273DD2"/>
<stop offset="0.775" stop-color="#6BB9EC"/>
<stop offset="1" stop-color="#7AC4F4"/>
</linearGradient>
<linearGradient id="paint1_linear_233_12864" x1="49.1673" y1="196.667" x2="32.3563" y2="168.076" gradientUnits="userSpaceOnUse">
<stop stop-color="#273DD2"/>
<stop offset="0.775" stop-color="#6BB9EC"/>
<stop offset="1" stop-color="#7AC4F4"/>
</linearGradient>
<linearGradient id="paint2_linear_233_12864" x1="61.4815" y1="165.882" x2="44.6705" y2="137.291" gradientUnits="userSpaceOnUse">
<stop stop-color="#273DD2"/>
<stop offset="0.775" stop-color="#6BB9EC"/>
<stop offset="1" stop-color="#7AC4F4"/>
</linearGradient>
<linearGradient id="paint3_linear_233_12864" x1="73.7957" y1="135.096" x2="56.9847" y2="106.506" gradientUnits="userSpaceOnUse">
<stop stop-color="#273DD2"/>
<stop offset="0.775" stop-color="#6BB9EC"/>
<stop offset="1" stop-color="#7AC4F4"/>
</linearGradient>
<linearGradient id="paint4_linear_233_12864" x1="86.11" y1="104.311" x2="69.299" y2="75.7203" gradientUnits="userSpaceOnUse">
<stop stop-color="#273DD2"/>
<stop offset="0.775" stop-color="#6BB9EC"/>
<stop offset="1" stop-color="#7AC4F4"/>
</linearGradient>
<linearGradient id="paint5_linear_233_12864" x1="98.4239" y1="73.5254" x2="81.6129" y2="44.9348" gradientUnits="userSpaceOnUse">
<stop stop-color="#273DD2"/>
<stop offset="0.775" stop-color="#6BB9EC"/>
<stop offset="1" stop-color="#7AC4F4"/>
</linearGradient>
<linearGradient id="paint6_linear_233_12864" x1="67.6385" y1="219.756" x2="50.8275" y2="191.165" gradientUnits="userSpaceOnUse">
<stop stop-color="#273DD2"/>
<stop offset="0.775" stop-color="#6BB9EC"/>
<stop offset="1" stop-color="#7AC4F4"/>
</linearGradient>
<linearGradient id="paint7_linear_233_12864" x1="79.9525" y1="188.971" x2="63.1415" y2="160.38" gradientUnits="userSpaceOnUse">
<stop stop-color="#273DD2"/>
<stop offset="0.775" stop-color="#6BB9EC"/>
<stop offset="1" stop-color="#7AC4F4"/>
</linearGradient>
<linearGradient id="paint8_linear_233_12864" x1="92.2667" y1="158.185" x2="75.4557" y2="129.595" gradientUnits="userSpaceOnUse">
<stop stop-color="#273DD2"/>
<stop offset="0.775" stop-color="#6BB9EC"/>
<stop offset="1" stop-color="#7AC4F4"/>
</linearGradient>
<linearGradient id="paint9_linear_233_12864" x1="104.581" y1="127.4" x2="87.7701" y2="98.8092" gradientUnits="userSpaceOnUse">
<stop stop-color="#273DD2"/>
<stop offset="0.775" stop-color="#6BB9EC"/>
<stop offset="1" stop-color="#7AC4F4"/>
</linearGradient>
<linearGradient id="paint10_linear_233_12864" x1="116.895" y1="96.6143" x2="100.084" y2="68.0237" gradientUnits="userSpaceOnUse">
<stop stop-color="#273DD2"/>
<stop offset="0.775" stop-color="#6BB9EC"/>
<stop offset="1" stop-color="#7AC4F4"/>
</linearGradient>
<linearGradient id="paint11_linear_233_12864" x1="86.11" y1="242.845" x2="69.299" y2="214.254" gradientUnits="userSpaceOnUse">
<stop stop-color="#273DD2"/>
<stop offset="0.775" stop-color="#6BB9EC"/>
<stop offset="1" stop-color="#7AC4F4"/>
</linearGradient>
<linearGradient id="paint12_linear_233_12864" x1="98.4239" y1="212.059" x2="81.6129" y2="183.469" gradientUnits="userSpaceOnUse">
<stop stop-color="#273DD2"/>
<stop offset="0.775" stop-color="#6BB9EC"/>
<stop offset="1" stop-color="#7AC4F4"/>
</linearGradient>
<linearGradient id="paint13_linear_233_12864" x1="110.738" y1="181.274" x2="93.9271" y2="152.684" gradientUnits="userSpaceOnUse">
<stop stop-color="#273DD2"/>
<stop offset="0.775" stop-color="#6BB9EC"/>
<stop offset="1" stop-color="#7AC4F4"/>
</linearGradient>
<linearGradient id="paint14_linear_233_12864" x1="123.052" y1="150.489" x2="106.241" y2="121.898" gradientUnits="userSpaceOnUse">
<stop stop-color="#273DD2"/>
<stop offset="0.775" stop-color="#6BB9EC"/>
<stop offset="1" stop-color="#7AC4F4"/>
</linearGradient>
<linearGradient id="paint15_linear_233_12864" x1="135.367" y1="119.703" x2="118.556" y2="91.1128" gradientUnits="userSpaceOnUse">
<stop stop-color="#273DD2"/>
<stop offset="0.775" stop-color="#6BB9EC"/>
<stop offset="1" stop-color="#7AC4F4"/>
</linearGradient>
<linearGradient id="paint16_linear_233_12864" x1="104.581" y1="265.934" x2="87.7701" y2="237.344" gradientUnits="userSpaceOnUse">
<stop stop-color="#273DD2"/>
<stop offset="0.775" stop-color="#6BB9EC"/>
<stop offset="1" stop-color="#7AC4F4"/>
</linearGradient>
<linearGradient id="paint17_linear_233_12864" x1="116.895" y1="235.148" x2="100.084" y2="206.558" gradientUnits="userSpaceOnUse">
<stop stop-color="#273DD2"/>
<stop offset="0.775" stop-color="#6BB9EC"/>
<stop offset="1" stop-color="#7AC4F4"/>
</linearGradient>
<linearGradient id="paint18_linear_233_12864" x1="129.209" y1="204.363" x2="112.398" y2="175.773" gradientUnits="userSpaceOnUse">
<stop stop-color="#273DD2"/>
<stop offset="0.775" stop-color="#6BB9EC"/>
<stop offset="1" stop-color="#7AC4F4"/>
</linearGradient>
<linearGradient id="paint19_linear_233_12864" x1="141.523" y1="173.578" x2="124.712" y2="144.987" gradientUnits="userSpaceOnUse">
<stop stop-color="#273DD2"/>
<stop offset="0.775" stop-color="#6BB9EC"/>
<stop offset="1" stop-color="#7AC4F4"/>
</linearGradient>
<linearGradient id="paint20_linear_233_12864" x1="153.838" y1="142.792" x2="137.027" y2="114.202" gradientUnits="userSpaceOnUse">
<stop stop-color="#273DD2"/>
<stop offset="0.775" stop-color="#6BB9EC"/>
<stop offset="1" stop-color="#7AC4F4"/>
</linearGradient>
<linearGradient id="paint21_linear_233_12864" x1="123.052" y1="289.023" x2="106.241" y2="260.432" gradientUnits="userSpaceOnUse">
<stop stop-color="#273DD2"/>
<stop offset="0.775" stop-color="#6BB9EC"/>
<stop offset="1" stop-color="#7AC4F4"/>
</linearGradient>
<linearGradient id="paint22_linear_233_12864" x1="135.367" y1="258.238" x2="118.556" y2="229.647" gradientUnits="userSpaceOnUse">
<stop stop-color="#273DD2"/>
<stop offset="0.775" stop-color="#6BB9EC"/>
<stop offset="1" stop-color="#7AC4F4"/>
</linearGradient>
<linearGradient id="paint23_linear_233_12864" x1="147.681" y1="227.453" x2="130.87" y2="198.862" gradientUnits="userSpaceOnUse">
<stop stop-color="#273DD2"/>
<stop offset="0.775" stop-color="#6BB9EC"/>
<stop offset="1" stop-color="#7AC4F4"/>
</linearGradient>
<linearGradient id="paint24_linear_233_12864" x1="159.994" y1="196.667" x2="143.183" y2="168.076" gradientUnits="userSpaceOnUse">
<stop stop-color="#273DD2"/>
<stop offset="0.775" stop-color="#6BB9EC"/>
<stop offset="1" stop-color="#7AC4F4"/>
</linearGradient>
<linearGradient id="paint25_linear_233_12864" x1="172.309" y1="165.882" x2="155.498" y2="137.291" gradientUnits="userSpaceOnUse">
<stop stop-color="#273DD2"/>
<stop offset="0.775" stop-color="#6BB9EC"/>
<stop offset="1" stop-color="#7AC4F4"/>
</linearGradient>
<linearGradient id="paint26_linear_233_12864" x1="141.523" y1="312.112" x2="124.712" y2="283.521" gradientUnits="userSpaceOnUse">
<stop stop-color="#273DD2"/>
<stop offset="0.775" stop-color="#6BB9EC"/>
<stop offset="1" stop-color="#7AC4F4"/>
</linearGradient>
<linearGradient id="paint27_linear_233_12864" x1="153.838" y1="281.327" x2="137.027" y2="252.736" gradientUnits="userSpaceOnUse">
<stop stop-color="#273DD2"/>
<stop offset="0.775" stop-color="#6BB9EC"/>
<stop offset="1" stop-color="#7AC4F4"/>
</linearGradient>
<linearGradient id="paint28_linear_233_12864" x1="166.152" y1="250.541" x2="149.341" y2="221.951" gradientUnits="userSpaceOnUse">
<stop stop-color="#273DD2"/>
<stop offset="0.775" stop-color="#6BB9EC"/>
<stop offset="1" stop-color="#7AC4F4"/>
</linearGradient>
<linearGradient id="paint29_linear_233_12864" x1="178.466" y1="219.756" x2="161.655" y2="191.165" gradientUnits="userSpaceOnUse">
<stop stop-color="#273DD2"/>
<stop offset="0.775" stop-color="#6BB9EC"/>
<stop offset="1" stop-color="#7AC4F4"/>
</linearGradient>
<linearGradient id="paint30_linear_233_12864" x1="190.78" y1="188.971" x2="173.969" y2="160.38" gradientUnits="userSpaceOnUse">
<stop stop-color="#273DD2"/>
<stop offset="0.775" stop-color="#6BB9EC"/>
<stop offset="1" stop-color="#7AC4F4"/>
</linearGradient>
<linearGradient id="paint31_linear_233_12864" x1="172.309" y1="304.416" x2="155.498" y2="275.825" gradientUnits="userSpaceOnUse">
<stop stop-color="#273DD2"/>
<stop offset="0.775" stop-color="#6BB9EC"/>
<stop offset="1" stop-color="#7AC4F4"/>
</linearGradient>
<linearGradient id="paint32_linear_233_12864" x1="184.623" y1="273.63" x2="167.812" y2="245.04" gradientUnits="userSpaceOnUse">
<stop stop-color="#273DD2"/>
<stop offset="0.775" stop-color="#6BB9EC"/>
<stop offset="1" stop-color="#7AC4F4"/>
</linearGradient>
<linearGradient id="paint33_linear_233_12864" x1="196.937" y1="242.845" x2="180.126" y2="214.254" gradientUnits="userSpaceOnUse">
<stop stop-color="#273DD2"/>
<stop offset="0.775" stop-color="#6BB9EC"/>
<stop offset="1" stop-color="#7AC4F4"/>
</linearGradient>
<linearGradient id="paint34_linear_233_12864" x1="209.251" y1="212.059" x2="192.44" y2="183.469" gradientUnits="userSpaceOnUse">
<stop stop-color="#273DD2"/>
<stop offset="0.775" stop-color="#6BB9EC"/>
<stop offset="1" stop-color="#7AC4F4"/>
</linearGradient>
<linearGradient id="paint35_linear_233_12864" x1="203.094" y1="296.719" x2="186.283" y2="268.129" gradientUnits="userSpaceOnUse">
<stop stop-color="#273DD2"/>
<stop offset="0.775" stop-color="#6BB9EC"/>
<stop offset="1" stop-color="#7AC4F4"/>
</linearGradient>
<linearGradient id="paint36_linear_233_12864" x1="215.409" y1="265.934" x2="198.598" y2="237.344" gradientUnits="userSpaceOnUse">
<stop stop-color="#273DD2"/>
<stop offset="0.775" stop-color="#6BB9EC"/>
<stop offset="1" stop-color="#7AC4F4"/>
</linearGradient>
<linearGradient id="paint37_linear_233_12864" x1="227.723" y1="235.148" x2="210.912" y2="206.558" gradientUnits="userSpaceOnUse">
<stop stop-color="#273DD2"/>
<stop offset="0.775" stop-color="#6BB9EC"/>
<stop offset="1" stop-color="#7AC4F4"/>
</linearGradient>
<linearGradient id="paint38_linear_233_12864" x1="233.879" y1="289.023" x2="217.068" y2="260.432" gradientUnits="userSpaceOnUse">
<stop stop-color="#273DD2"/>
<stop offset="0.775" stop-color="#6BB9EC"/>
<stop offset="1" stop-color="#7AC4F4"/>
</linearGradient>
<linearGradient id="paint39_linear_233_12864" x1="246.194" y1="258.238" x2="229.383" y2="229.647" gradientUnits="userSpaceOnUse">
<stop stop-color="#273DD2"/>
<stop offset="0.775" stop-color="#6BB9EC"/>
<stop offset="1" stop-color="#7AC4F4"/>
</linearGradient>
<linearGradient id="paint40_linear_233_12864" x1="138.445" y1="71.9862" x2="121.634" y2="43.3956" gradientUnits="userSpaceOnUse">
<stop stop-color="#273DD2"/>
<stop offset="0.775" stop-color="#6BB9EC"/>
<stop offset="1" stop-color="#7AC4F4"/>
</linearGradient>
<linearGradient id="paint41_linear_233_12864" x1="156.916" y1="95.0754" x2="140.105" y2="66.4848" gradientUnits="userSpaceOnUse">
<stop stop-color="#273DD2"/>
<stop offset="0.775" stop-color="#6BB9EC"/>
<stop offset="1" stop-color="#7AC4F4"/>
</linearGradient>
<linearGradient id="paint42_linear_233_12864" x1="169.23" y1="64.29" x2="152.419" y2="35.6994" gradientUnits="userSpaceOnUse">
<stop stop-color="#273DD2"/>
<stop offset="0.775" stop-color="#6BB9EC"/>
<stop offset="1" stop-color="#7AC4F4"/>
</linearGradient>
<linearGradient id="paint43_linear_233_12864" x1="175.387" y1="118.164" x2="158.576" y2="89.5737" gradientUnits="userSpaceOnUse">
<stop stop-color="#273DD2"/>
<stop offset="0.775" stop-color="#6BB9EC"/>
<stop offset="1" stop-color="#7AC4F4"/>
</linearGradient>
<linearGradient id="paint44_linear_233_12864" x1="187.701" y1="87.3789" x2="170.89" y2="58.7883" gradientUnits="userSpaceOnUse">
<stop stop-color="#273DD2"/>
<stop offset="0.775" stop-color="#6BB9EC"/>
<stop offset="1" stop-color="#7AC4F4"/>
</linearGradient>
<linearGradient id="paint45_linear_233_12864" x1="193.858" y1="141.253" x2="177.047" y2="112.663" gradientUnits="userSpaceOnUse">
<stop stop-color="#273DD2"/>
<stop offset="0.775" stop-color="#6BB9EC"/>
<stop offset="1" stop-color="#7AC4F4"/>
</linearGradient>
<linearGradient id="paint46_linear_233_12864" x1="206.173" y1="110.468" x2="189.362" y2="81.8774" gradientUnits="userSpaceOnUse">
<stop stop-color="#273DD2"/>
<stop offset="0.775" stop-color="#6BB9EC"/>
<stop offset="1" stop-color="#7AC4F4"/>
</linearGradient>
<linearGradient id="paint47_linear_233_12864" x1="218.487" y1="79.6825" x2="201.676" y2="51.0919" gradientUnits="userSpaceOnUse">
<stop stop-color="#273DD2"/>
<stop offset="0.775" stop-color="#6BB9EC"/>
<stop offset="1" stop-color="#7AC4F4"/>
</linearGradient>
<linearGradient id="paint48_linear_233_12864" x1="212.329" y1="164.342" x2="195.518" y2="135.752" gradientUnits="userSpaceOnUse">
<stop stop-color="#273DD2"/>
<stop offset="0.775" stop-color="#6BB9EC"/>
<stop offset="1" stop-color="#7AC4F4"/>
</linearGradient>
<linearGradient id="paint49_linear_233_12864" x1="224.644" y1="133.557" x2="207.833" y2="104.966" gradientUnits="userSpaceOnUse">
<stop stop-color="#273DD2"/>
<stop offset="0.775" stop-color="#6BB9EC"/>
<stop offset="1" stop-color="#7AC4F4"/>
</linearGradient>
<linearGradient id="paint50_linear_233_12864" x1="236.958" y1="102.772" x2="220.147" y2="74.181" gradientUnits="userSpaceOnUse">
<stop stop-color="#273DD2"/>
<stop offset="0.775" stop-color="#6BB9EC"/>
<stop offset="1" stop-color="#7AC4F4"/>
</linearGradient>
<linearGradient id="paint51_linear_233_12864" x1="249.272" y1="71.9862" x2="232.461" y2="43.3956" gradientUnits="userSpaceOnUse">
<stop stop-color="#273DD2"/>
<stop offset="0.775" stop-color="#6BB9EC"/>
<stop offset="1" stop-color="#7AC4F4"/>
</linearGradient>
<linearGradient id="paint52_linear_233_12864" x1="230.801" y1="187.431" x2="213.99" y2="158.841" gradientUnits="userSpaceOnUse">
<stop stop-color="#273DD2"/>
<stop offset="0.775" stop-color="#6BB9EC"/>
<stop offset="1" stop-color="#7AC4F4"/>
</linearGradient>
<linearGradient id="paint53_linear_233_12864" x1="243.115" y1="156.646" x2="226.304" y2="128.055" gradientUnits="userSpaceOnUse">
<stop stop-color="#273DD2"/>
<stop offset="0.775" stop-color="#6BB9EC"/>
<stop offset="1" stop-color="#7AC4F4"/>
</linearGradient>
<linearGradient id="paint54_linear_233_12864" x1="255.429" y1="125.861" x2="238.618" y2="97.2699" gradientUnits="userSpaceOnUse">
<stop stop-color="#273DD2"/>
<stop offset="0.775" stop-color="#6BB9EC"/>
<stop offset="1" stop-color="#7AC4F4"/>
</linearGradient>
<linearGradient id="paint55_linear_233_12864" x1="267.743" y1="95.0754" x2="250.932" y2="66.4848" gradientUnits="userSpaceOnUse">
<stop stop-color="#273DD2"/>
<stop offset="0.775" stop-color="#6BB9EC"/>
<stop offset="1" stop-color="#7AC4F4"/>
</linearGradient>
<linearGradient id="paint56_linear_233_12864" x1="280.057" y1="64.29" x2="263.246" y2="35.6994" gradientUnits="userSpaceOnUse">
<stop stop-color="#273DD2"/>
<stop offset="0.775" stop-color="#6BB9EC"/>
<stop offset="1" stop-color="#7AC4F4"/>
</linearGradient>
<linearGradient id="paint57_linear_233_12864" x1="249.272" y1="210.521" x2="232.461" y2="181.93" gradientUnits="userSpaceOnUse">
<stop stop-color="#273DD2"/>
<stop offset="0.775" stop-color="#6BB9EC"/>
<stop offset="1" stop-color="#7AC4F4"/>
</linearGradient>
<linearGradient id="paint58_linear_233_12864" x1="261.586" y1="179.735" x2="244.775" y2="151.144" gradientUnits="userSpaceOnUse">
<stop stop-color="#273DD2"/>
<stop offset="0.775" stop-color="#6BB9EC"/>
<stop offset="1" stop-color="#7AC4F4"/>
</linearGradient>
<linearGradient id="paint59_linear_233_12864" x1="273.9" y1="148.95" x2="257.089" y2="120.359" gradientUnits="userSpaceOnUse">
<stop stop-color="#273DD2"/>
<stop offset="0.775" stop-color="#6BB9EC"/>
<stop offset="1" stop-color="#7AC4F4"/>
</linearGradient>
<linearGradient id="paint60_linear_233_12864" x1="286.215" y1="118.164" x2="269.404" y2="89.5737" gradientUnits="userSpaceOnUse">
<stop stop-color="#273DD2"/>
<stop offset="0.775" stop-color="#6BB9EC"/>
<stop offset="1" stop-color="#7AC4F4"/>
</linearGradient>
<linearGradient id="paint61_linear_233_12864" x1="298.528" y1="87.3789" x2="281.717" y2="58.7883" gradientUnits="userSpaceOnUse">
<stop stop-color="#273DD2"/>
<stop offset="0.775" stop-color="#6BB9EC"/>
<stop offset="1" stop-color="#7AC4F4"/>
</linearGradient>
<linearGradient id="paint62_linear_233_12864" x1="267.743" y1="233.609" x2="250.932" y2="205.019" gradientUnits="userSpaceOnUse">
<stop stop-color="#273DD2"/>
<stop offset="0.775" stop-color="#6BB9EC"/>
<stop offset="1" stop-color="#7AC4F4"/>
</linearGradient>
<linearGradient id="paint63_linear_233_12864" x1="280.057" y1="202.824" x2="263.246" y2="174.234" gradientUnits="userSpaceOnUse">
<stop stop-color="#273DD2"/>
<stop offset="0.775" stop-color="#6BB9EC"/>
<stop offset="1" stop-color="#7AC4F4"/>
</linearGradient>
<linearGradient id="paint64_linear_233_12864" x1="292.372" y1="172.039" x2="275.561" y2="143.448" gradientUnits="userSpaceOnUse">
<stop stop-color="#273DD2"/>
<stop offset="0.775" stop-color="#6BB9EC"/>
<stop offset="1" stop-color="#7AC4F4"/>
</linearGradient>
<linearGradient id="paint65_linear_233_12864" x1="304.686" y1="141.253" x2="287.875" y2="112.663" gradientUnits="userSpaceOnUse">
<stop stop-color="#273DD2"/>
<stop offset="0.775" stop-color="#6BB9EC"/>
<stop offset="1" stop-color="#7AC4F4"/>
</linearGradient>
<linearGradient id="paint66_linear_233_12864" x1="317" y1="110.468" x2="300.189" y2="81.8774" gradientUnits="userSpaceOnUse">
<stop stop-color="#273DD2"/>
<stop offset="0.775" stop-color="#6BB9EC"/>
<stop offset="1" stop-color="#7AC4F4"/>
</linearGradient>
<linearGradient id="paint67_linear_233_12864" x1="317.583" y1="292.917" x2="146.3" y2="-0.924901" gradientUnits="userSpaceOnUse">
<stop stop-color="#273DD2"/>
<stop offset="0.775" stop-color="#6BB9EC"/>
<stop offset="1" stop-color="#7AC4F4"/>
</linearGradient>
<linearGradient id="paint68_linear_233_12864" x1="23" y1="118.5" x2="231.724" y2="230.845" gradientUnits="userSpaceOnUse">
<stop stop-color="white"/>
<stop offset="1" stop-color="white" stop-opacity="0.2"/>
</linearGradient>
<linearGradient id="paint69_linear_233_12864" x1="23" y1="118.5" x2="231.724" y2="230.845" gradientUnits="userSpaceOnUse">
<stop stop-color="white" stop-opacity="0.8"/>
<stop offset="1" stop-color="white" stop-opacity="0.2"/>
</linearGradient>
<linearGradient id="paint70_linear_233_12864" x1="18" y1="268" x2="53.7812" y2="287.259" gradientUnits="userSpaceOnUse">
<stop stop-color="white" stop-opacity="0.8"/>
<stop offset="1" stop-color="white" stop-opacity="0.2"/>
</linearGradient>
</defs>
</svg>
