<svg width="101" height="100" viewBox="0 0 101 100" fill="none" xmlns="http://www.w3.org/2000/svg">
<path fill-rule="evenodd" clip-rule="evenodd" d="M55.9353 37.9086H46.3413C45.3676 37.9057 44.4345 37.5175 43.746 36.8286C43.0574 36.1398 42.6693 35.2064 42.6665 34.2323V17.6763C42.6671 16.7015 43.0545 15.7668 43.7435 15.0775C44.4325 14.3882 45.3669 14.0006 46.3413 14H69.9917C70.9661 14.0006 71.9005 14.3882 72.5895 15.0775C73.2785 15.7668 73.6659 16.7015 73.6665 17.6763V34.2323C73.6637 35.2064 73.2756 36.1398 72.587 36.8286C71.8985 37.5175 70.9654 37.9057 69.9917 37.9086H66.5662V43.6986C66.5631 43.9439 66.4916 44.1835 66.3598 44.3903C66.228 44.5972 66.0411 44.7631 65.8202 44.8695C65.5992 44.9759 65.353 45.0186 65.1092 44.9926C64.8653 44.9666 64.6336 44.8731 64.44 44.7226L55.9353 37.9086ZM60.6665 64.0048C61.0972 76.0439 78.2672 75.9528 78.6665 64.0049C78.2764 52.0174 61.0778 51.9794 60.6665 64.0048ZM77.5994 72C75.4355 74.0125 72.6077 75.1288 69.6734 75.1288C66.7392 75.1288 63.9114 74.0126 61.7475 72.0001C58.132 74.1353 52.5214 80.3858 55.515 84.8992C55.9727 85.5481 56.5759 86.0771 57.2747 86.4424C57.9736 86.8077 58.748 86.9988 59.534 87H79.8C80.586 86.9988 81.3604 86.8076 82.0593 86.4424C82.7581 86.077 83.3613 85.5481 83.8189 84.8992C86.8033 80.3852 81.2283 74.1388 77.5994 72Z" fill="url(#paint0_linear_113_29)"/>
<path opacity="0.4" fill-rule="evenodd" clip-rule="evenodd" d="M40.198 26V34.1214C40.1984 35.7598 40.8742 37.3309 42.0767 38.4894C43.2792 39.6479 44.91 40.299 46.6106 40.2994H54.6665V42.8994C54.6657 43.7593 54.3107 44.5839 53.6795 45.192C53.0483 45.8 52.1925 46.142 51.2998 46.1427H43.1504L35.9228 51.7287C35.7247 51.876 35.488 51.9674 35.2391 51.9928C34.9903 52.0181 34.739 51.9765 34.5132 51.8724C34.2875 51.7683 34.0962 51.6059 33.9606 51.4033C33.825 51.2007 33.7504 50.9658 33.7452 50.7247V46.1427H31.0332C30.1405 46.142 29.2847 45.8 28.6535 45.192C28.0223 44.5839 27.6673 43.7593 27.6665 42.8994V29.2435C27.6673 28.3835 28.0222 27.5589 28.6535 26.9508C29.2847 26.3427 30.1406 26.0007 31.0332 26H40.198ZM40.6665 64.0051C40.2576 51.9844 23.0602 52.0122 22.6665 64.0049C23.0623 75.9453 40.2322 76.0512 40.6665 64.0051ZM39.6 72C37.4339 74.0079 34.6068 75.1212 31.6739 75.1212C28.741 75.1212 25.9139 74.008 23.7478 72.0001C20.1102 74.1352 14.5266 80.3837 17.5152 84.8992C17.9729 85.5481 18.5761 86.0771 19.2749 86.4423C19.9738 86.8076 20.7482 86.9988 21.5342 87H41.8005C42.5865 86.9988 43.3609 86.8077 44.0598 86.4424C44.7587 86.0771 45.3619 85.5481 45.8196 84.8992C48.8048 80.3904 43.2187 74.1357 39.6 72Z" fill="url(#paint1_linear_113_29)"/>
<defs>
<linearGradient id="paint0_linear_113_29" x1="84.6665" y1="87" x2="24.4938" y2="35.0485" gradientUnits="userSpaceOnUse">
<stop stop-color="#273DD2"/>
<stop offset="0.775" stop-color="#6BB9EC"/>
<stop offset="1" stop-color="#7AC4F4"/>
</linearGradient>
<linearGradient id="paint1_linear_113_29" x1="54.6665" y1="87" x2="3.95688" y2="39.5959" gradientUnits="userSpaceOnUse">
<stop stop-color="#273DD2"/>
<stop offset="0.775" stop-color="#6BB9EC"/>
<stop offset="1" stop-color="#7AC4F4"/>
</linearGradient>
</defs>
</svg>
