<svg width="40" height="40" viewBox="0 0 40 40" fill="none" xmlns="http://www.w3.org/2000/svg">
<path fill-rule="evenodd" clip-rule="evenodd" d="M0 20C0 8.96875 8.96875 0 20 0C31.0312 0 40 8.96875 40 20C40 31.0312 31.0312 40 20 40C8.96875 40 0 31.0312 0 20ZM12.6721 25.6326C13.8301 26.7986 14.9877 27.9642 16.1484 29.125C16.4375 29.4141 16.8984 29.4141 17.1797 29.125L31.5 14.8203C31.7891 14.5391 31.7891 14.0781 31.5 13.7891L28.5469 10.8359C28.2578 10.5547 27.7969 10.5547 27.5078 10.8359L16.6797 21.6719L12.4688 17.4609C12.1875 17.1797 11.7188 17.1797 11.4375 17.4609L8.49219 20.4062C8.21094 20.6875 8.21094 21.1562 8.49219 21.4375C9.89036 22.8314 11.2816 24.2323 12.6721 25.6326Z" fill="url(#paint0_linear_64_21434)"/>
<defs>
<linearGradient id="paint0_linear_64_21434" x1="40" y1="40" x2="9.24083" y2="-6.15799" gradientUnits="userSpaceOnUse">
<stop stop-color="#4CD227"/>
<stop offset="0.775" stop-color="#6BEC9F"/>
<stop offset="1" stop-color="#7AF4BF"/>
</linearGradient>
</defs>
</svg>
