<svg width="80" height="80" viewBox="0 0 80 80" fill="none" xmlns="http://www.w3.org/2000/svg">
<path d="M31.228 54.0891H31.4258C31.3693 54.0891 31.2845 54.0891 31.228 54.1174V54.0891Z" fill="black"/>
<path d="M48.5175 54.0891V54.1174C48.461 54.0891 48.4327 54.0891 48.3762 54.0891H48.5175Z" fill="black"/>
<path opacity="0.4" d="M49.9964 61.8361V66.0424C49.9964 69.2728 47.338 71.9312 44.1076 71.9312H35.695C32.8683 71.9312 29.8062 69.7776 29.8062 65.0665V61.8361H49.9964Z" fill="url(#paint0_linear_64_21143)"/>
<path fill-rule="evenodd" clip-rule="evenodd" d="M34.8539 8.53379C41.9541 7.01952 49.2226 8.76935 54.7413 13.2449C60.2936 17.754 63.4567 24.4168 63.4567 31.5507C63.4567 38.8192 60.159 45.5493 54.4721 50.0584C52.1502 51.8756 50.6359 54.2311 50.1648 56.7885V56.8222C50.0975 56.7885 50.0639 56.7885 49.9966 56.7885H29.8063C29.739 56.7885 29.638 56.7885 29.5707 56.8222V56.7885C29.0996 54.1302 27.72 51.8419 25.7346 50.3613C18.3988 44.809 14.9665 35.7234 16.8509 26.5704C18.7017 17.6531 25.9365 10.3846 34.8539 8.53379ZM55.7469 27.5817C55.838 27.635 55.9097 27.7109 55.9533 27.8C55.9969 27.8891 56.0104 27.9877 55.9922 28.0836C55.974 28.1795 55.9248 28.2686 55.8508 28.34L34.5708 48.84C34.4814 48.926 34.3611 48.9812 34.2307 48.996C34.1004 49.0108 33.9683 48.9842 33.8577 48.9208C33.7472 48.8575 33.665 48.7614 33.6257 48.6495C33.5865 48.5375 33.5925 48.4168 33.6428 48.3085L40.0403 34.5H28.5603C28.4635 34.5 28.3683 34.4776 28.2841 34.4351C28.1999 34.3925 28.1294 34.3311 28.0797 34.257C28.0299 34.1828 28.0026 34.0984 28.0002 34.012C27.9979 33.9256 28.0207 33.8402 28.0664 33.764L37.9476 17.264C37.9954 17.1842 38.0666 17.1175 38.1536 17.071C38.2406 17.0245 38.3401 17 38.4415 17H47.0403C47.1364 17 47.2309 17.022 47.3147 17.064C47.3985 17.106 47.4688 17.1666 47.5188 17.2398C47.5688 17.3131 47.5969 17.3967 47.6003 17.4824C47.6036 17.5682 47.5822 17.6533 47.5381 17.7295L41.8883 27.5H55.4403C55.5492 27.5 55.6557 27.5284 55.7469 27.5817Z" fill="url(#paint1_linear_64_21143)"/>
<defs>
<linearGradient id="paint0_linear_64_21143" x1="49.9964" y1="71.9312" x2="44.9514" y2="56.7898" gradientUnits="userSpaceOnUse">
<stop stop-color="#273DD2"/>
<stop offset="0.775" stop-color="#6BB9EC"/>
<stop offset="1" stop-color="#7AC4F4"/>
</linearGradient>
<linearGradient id="paint1_linear_64_21143" x1="63.4567" y1="56.8222" x2="25.4162" y2="1.73379" gradientUnits="userSpaceOnUse">
<stop stop-color="#273DD2"/>
<stop offset="0.775" stop-color="#6BB9EC"/>
<stop offset="1" stop-color="#7AC4F4"/>
</linearGradient>
</defs>
</svg>
