<svg width="390" height="350" viewBox="0 0 390 350" fill="none" xmlns="http://www.w3.org/2000/svg">
<rect width="350" height="350" transform="translate(31)" fill="#0C1525"/>
<rect x="66" y="79" width="296" height="194" rx="22" stroke="url(#paint0_linear_233_21673)" stroke-width="4"/>
<path d="M83 260.75L123.768 212.398C131.892 202.763 143.854 197.203 156.457 197.203H177.074C189.164 197.203 200.69 192.084 208.797 183.113L235.55 153.508C243.657 144.537 255.182 139.418 267.273 139.418H286.268C297.967 139.418 309.155 134.624 317.224 126.154L345 97" stroke="url(#paint1_linear_233_21673)" stroke-width="4.54861" stroke-linecap="round"/>
<rect x="48.5" y="231.5" width="59" height="59" rx="9.5" fill="#0C1525"/>
<rect x="48.5" y="231.5" width="59" height="59" rx="9.5" stroke="url(#paint2_linear_233_21673)"/>
<circle opacity="0.4" cx="78" cy="261" r="20.5" stroke="url(#paint3_linear_233_21673)"/>
<path d="M99 261C99 264.453 98.1483 267.854 96.5203 270.899C94.8924 273.945 92.5384 276.542 89.667 278.461C86.7955 280.38 83.4952 281.56 80.0584 281.899C76.6215 282.237 73.1542 281.723 69.9636 280.401C66.7731 279.08 63.9576 276.992 61.7668 274.322C59.5759 271.653 58.0772 268.484 57.4035 265.097C56.7298 261.71 56.9018 258.209 57.9043 254.904C58.9067 251.599 60.7088 248.593 63.1508 246.151L78 261H99Z" fill="url(#paint4_linear_233_21673)"/>
<rect x="121.5" y="8.5" width="59" height="59" rx="9.5" fill="#0C1525"/>
<rect x="121.5" y="8.5" width="59" height="59" rx="9.5" stroke="url(#paint5_linear_233_21673)"/>
<path fill-rule="evenodd" clip-rule="evenodd" d="M149 54C159.493 54 168 45.4934 168 35C168 24.5066 159.493 16 149 16C138.507 16 130 24.5066 130 35C130 45.4934 138.507 54 149 54ZM149 49.3938C156.949 49.3938 163.394 42.9494 163.394 34.9999C163.394 27.0503 156.949 20.606 149 20.606C141.05 20.606 134.606 27.0503 134.606 34.9999C134.606 42.9494 141.05 49.3938 149 49.3938Z" fill="url(#paint6_linear_233_21673)"/>
<path opacity="0.4" d="M162 49L171 58" stroke="url(#paint7_linear_233_21673)"/>
<rect x="330.5" y="282.5" width="59" height="59" rx="9.5" fill="#0C1525"/>
<rect x="330.5" y="282.5" width="59" height="59" rx="9.5" stroke="url(#paint8_linear_233_21673)"/>
<rect opacity="0.4" x="359.678" y="294.707" width="24" height="24" transform="rotate(45 359.678 294.707)" stroke="url(#paint9_linear_233_21673)"/>
<circle cx="360" cy="294" r="3" fill="url(#paint10_linear_233_21673)"/>
<circle cx="342" cy="312" r="7" fill="url(#paint11_linear_233_21673)"/>
<circle cx="377" cy="312" r="5" fill="url(#paint12_linear_233_21673)"/>
<circle cx="360" cy="329" r="4" fill="url(#paint13_linear_233_21673)"/>
<rect x="230.333" y="302.333" width="39.3333" height="39.3333" rx="6.33333" fill="#0C1525"/>
<rect x="230.333" y="302.333" width="39.3333" height="39.3333" rx="6.33333" stroke="url(#paint14_linear_233_21673)" stroke-width="0.666667"/>
<path d="M254.167 330L262.167 322L254.167 314" stroke="url(#paint15_linear_233_21673)" stroke-width="4"/>
<path opacity="0.4" d="M245.167 314L237.167 322L245.167 330" stroke="url(#paint16_linear_233_21673)" stroke-width="4"/>
<circle cx="275" cy="139" r="11" fill="#0C1525"/>
<rect x="0.333333" y="125.333" width="39.3333" height="39.3333" rx="6.33333" fill="#0C1525"/>
<rect x="0.333333" y="125.333" width="39.3333" height="39.3333" rx="6.33333" stroke="url(#paint17_linear_233_21673)" stroke-width="0.666667"/>
<rect x="16" y="131.667" width="8" height="27.3333" rx="2.66667" fill="url(#paint18_linear_233_21673)"/>
<rect opacity="0.4" x="26" y="144.333" width="8" height="14.6667" rx="2.66667" fill="url(#paint19_linear_233_21673)"/>
<rect opacity="0.4" x="6" y="137.667" width="8" height="21.3333" rx="2.66667" fill="url(#paint20_linear_233_21673)"/>
<circle cx="255.5" cy="164.5" r="60.5" fill="url(#paint21_linear_233_21673)" fill-opacity="0.1"/>
<circle cx="255.5" cy="164.5" r="60" stroke="url(#paint22_linear_233_21673)" stroke-opacity="0.4"/>
<path d="M295.5 63.5L321.642 37.3579C325.393 33.6071 330.48 31.5 335.784 31.5H381" stroke="url(#paint23_linear_233_21673)" stroke-linecap="round"/>
<rect x="358" y="11" width="23" height="8" rx="4" fill="url(#paint24_linear_233_21673)"/>
<rect x="358" width="11" height="8" rx="4" fill="url(#paint25_linear_233_21673)"/>
<path d="M343.32 15H340.936L339.208 12.568L337.464 15H335.08L338.008 10.92L335.208 7H337.592L339.208 9.256L340.824 7H343.192L340.392 10.904L343.32 15ZM343.838 15V13.352L347.662 9.416C348.516 8.52 348.942 7.77333 348.942 7.176C348.942 6.73867 348.804 6.38667 348.526 6.12C348.26 5.85333 347.913 5.72 347.486 5.72C346.644 5.72 346.02 6.15733 345.614 7.032L343.758 5.944C344.11 5.176 344.617 4.58933 345.278 4.184C345.94 3.77867 346.665 3.576 347.454 3.576C348.468 3.576 349.337 3.896 350.062 4.536C350.788 5.16533 351.15 6.01867 351.15 7.096C351.15 8.25867 350.537 9.45333 349.31 10.68L347.118 12.872H351.326V15H343.838Z" fill="white"/>
<path d="M300 209L330 239" stroke="url(#paint26_linear_233_21673)" stroke-opacity="0.4"/>
<circle cx="275" cy="139" r="5" fill="url(#paint27_linear_233_21673)"/>
<defs>
<linearGradient id="paint0_linear_233_21673" x1="360" y1="271" x2="244.44" y2="4.49379" gradientUnits="userSpaceOnUse">
<stop stop-color="#273DD2"/>
<stop offset="0.775" stop-color="#6BB9EC"/>
<stop offset="1" stop-color="#7AC4F4"/>
</linearGradient>
<linearGradient id="paint1_linear_233_21673" x1="345" y1="260.75" x2="248.151" y2="28.2157" gradientUnits="userSpaceOnUse">
<stop stop-color="#273DD2"/>
<stop offset="0.775" stop-color="#6BB9EC"/>
<stop offset="1" stop-color="#7AC4F4"/>
</linearGradient>
<linearGradient id="paint2_linear_233_21673" x1="48" y1="231" x2="119.562" y2="269.518" gradientUnits="userSpaceOnUse">
<stop stop-color="white" stop-opacity="0.1"/>
<stop offset="1" stop-color="white" stop-opacity="0.2"/>
</linearGradient>
<linearGradient id="paint3_linear_233_21673" x1="99" y1="282" x2="66.7029" y2="233.534" gradientUnits="userSpaceOnUse">
<stop stop-color="#273DD2"/>
<stop offset="0.775" stop-color="#6BB9EC"/>
<stop offset="1" stop-color="#7AC4F4"/>
</linearGradient>
<linearGradient id="paint4_linear_233_21673" x1="99" y1="282" x2="66.7029" y2="233.534" gradientUnits="userSpaceOnUse">
<stop stop-color="#273DD2"/>
<stop offset="0.775" stop-color="#6BB9EC"/>
<stop offset="1" stop-color="#7AC4F4"/>
</linearGradient>
<linearGradient id="paint5_linear_233_21673" x1="121" y1="8" x2="192.562" y2="46.5183" gradientUnits="userSpaceOnUse">
<stop stop-color="white" stop-opacity="0.1"/>
<stop offset="1" stop-color="white" stop-opacity="0.2"/>
</linearGradient>
<linearGradient id="paint6_linear_233_21673" x1="168" y1="54" x2="138.779" y2="10.1499" gradientUnits="userSpaceOnUse">
<stop stop-color="#273DD2"/>
<stop offset="0.775" stop-color="#6BB9EC"/>
<stop offset="1" stop-color="#7AC4F4"/>
</linearGradient>
<linearGradient id="paint7_linear_233_21673" x1="171" y1="58" x2="164.079" y2="47.6145" gradientUnits="userSpaceOnUse">
<stop stop-color="#273DD2"/>
<stop offset="0.775" stop-color="#6BB9EC"/>
<stop offset="1" stop-color="#7AC4F4"/>
</linearGradient>
<linearGradient id="paint8_linear_233_21673" x1="330" y1="282" x2="401.562" y2="320.518" gradientUnits="userSpaceOnUse">
<stop stop-color="white" stop-opacity="0.1"/>
<stop offset="1" stop-color="white" stop-opacity="0.2"/>
</linearGradient>
<linearGradient id="paint9_linear_233_21673" x1="384.678" y1="319" x2="365.453" y2="290.151" gradientUnits="userSpaceOnUse">
<stop stop-color="#273DD2"/>
<stop offset="0.775" stop-color="#6BB9EC"/>
<stop offset="1" stop-color="#7AC4F4"/>
</linearGradient>
<linearGradient id="paint10_linear_233_21673" x1="363" y1="297" x2="358.386" y2="290.076" gradientUnits="userSpaceOnUse">
<stop stop-color="#273DD2"/>
<stop offset="0.775" stop-color="#6BB9EC"/>
<stop offset="1" stop-color="#7AC4F4"/>
</linearGradient>
<linearGradient id="paint11_linear_233_21673" x1="349" y1="319" x2="338.234" y2="302.845" gradientUnits="userSpaceOnUse">
<stop stop-color="#273DD2"/>
<stop offset="0.775" stop-color="#6BB9EC"/>
<stop offset="1" stop-color="#7AC4F4"/>
</linearGradient>
<linearGradient id="paint12_linear_233_21673" x1="382" y1="317" x2="374.31" y2="305.461" gradientUnits="userSpaceOnUse">
<stop stop-color="#273DD2"/>
<stop offset="0.775" stop-color="#6BB9EC"/>
<stop offset="1" stop-color="#7AC4F4"/>
</linearGradient>
<linearGradient id="paint13_linear_233_21673" x1="364" y1="333" x2="357.848" y2="323.768" gradientUnits="userSpaceOnUse">
<stop stop-color="#273DD2"/>
<stop offset="0.775" stop-color="#6BB9EC"/>
<stop offset="1" stop-color="#7AC4F4"/>
</linearGradient>
<linearGradient id="paint14_linear_233_21673" x1="230" y1="302" x2="277.708" y2="327.679" gradientUnits="userSpaceOnUse">
<stop stop-color="white" stop-opacity="0.1"/>
<stop offset="1" stop-color="white" stop-opacity="0.2"/>
</linearGradient>
<linearGradient id="paint15_linear_233_21673" x1="254.167" y1="314" x2="266.966" y2="323.603" gradientUnits="userSpaceOnUse">
<stop stop-color="#4D5CBF"/>
<stop offset="0.095" stop-color="#273DD2"/>
<stop offset="0.775" stop-color="#6BB9EC"/>
<stop offset="1" stop-color="#7AC4F4"/>
</linearGradient>
<linearGradient id="paint16_linear_233_21673" x1="245.167" y1="330" x2="232.367" y2="320.396" gradientUnits="userSpaceOnUse">
<stop stop-color="#4D5CBF"/>
<stop offset="0.095" stop-color="#273DD2"/>
<stop offset="0.775" stop-color="#6BB9EC"/>
<stop offset="1" stop-color="#7AC4F4"/>
</linearGradient>
<linearGradient id="paint17_linear_233_21673" x1="0" y1="125" x2="47.7083" y2="150.679" gradientUnits="userSpaceOnUse">
<stop stop-color="white" stop-opacity="0.1"/>
<stop offset="1" stop-color="white" stop-opacity="0.2"/>
</linearGradient>
<linearGradient id="paint18_linear_233_21673" x1="24" y1="159" x2="7.22999" y2="151.635" gradientUnits="userSpaceOnUse">
<stop stop-color="#273DD2"/>
<stop offset="0.775" stop-color="#6BB9EC"/>
<stop offset="1" stop-color="#7AC4F4"/>
</linearGradient>
<linearGradient id="paint19_linear_233_21673" x1="34" y1="159" x2="22.0208" y2="149.195" gradientUnits="userSpaceOnUse">
<stop stop-color="#273DD2"/>
<stop offset="0.775" stop-color="#6BB9EC"/>
<stop offset="1" stop-color="#7AC4F4"/>
</linearGradient>
<linearGradient id="paint20_linear_233_21673" x1="14" y1="159" x2="-1.19363" y2="150.45" gradientUnits="userSpaceOnUse">
<stop stop-color="#273DD2"/>
<stop offset="0.775" stop-color="#6BB9EC"/>
<stop offset="1" stop-color="#7AC4F4"/>
</linearGradient>
<linearGradient id="paint21_linear_233_21673" x1="195" y1="104" x2="339.318" y2="181.679" gradientUnits="userSpaceOnUse">
<stop stop-color="white"/>
<stop offset="1" stop-color="white" stop-opacity="0.2"/>
</linearGradient>
<linearGradient id="paint22_linear_233_21673" x1="195" y1="104" x2="339.318" y2="181.679" gradientUnits="userSpaceOnUse">
<stop stop-color="white" stop-opacity="0.8"/>
<stop offset="1" stop-color="white" stop-opacity="0.2"/>
</linearGradient>
<linearGradient id="paint23_linear_233_21673" x1="295.5" y1="31.5" x2="338.365" y2="93.1459" gradientUnits="userSpaceOnUse">
<stop stop-color="white" stop-opacity="0.1"/>
<stop offset="1" stop-color="white" stop-opacity="0.2"/>
</linearGradient>
<linearGradient id="paint24_linear_233_21673" x1="381" y1="19" x2="378.068" y2="6.34859" gradientUnits="userSpaceOnUse">
<stop stop-color="#273DD2"/>
<stop offset="0.775" stop-color="#6BB9EC"/>
<stop offset="1" stop-color="#7AC4F4"/>
</linearGradient>
<linearGradient id="paint25_linear_233_21673" x1="369" y1="8" x2="363.768" y2="-2.79545" gradientUnits="userSpaceOnUse">
<stop stop-color="#273DD2"/>
<stop offset="0.775" stop-color="#6BB9EC"/>
<stop offset="1" stop-color="#7AC4F4"/>
</linearGradient>
<linearGradient id="paint26_linear_233_21673" x1="300" y1="239" x2="319.259" y2="203.219" gradientUnits="userSpaceOnUse">
<stop stop-color="white" stop-opacity="0.8"/>
<stop offset="1" stop-color="white" stop-opacity="0.2"/>
</linearGradient>
<linearGradient id="paint27_linear_233_21673" x1="280" y1="144" x2="272.31" y2="132.461" gradientUnits="userSpaceOnUse">
<stop stop-color="#273DD2"/>
<stop offset="0.775" stop-color="#6BB9EC"/>
<stop offset="1" stop-color="#7AC4F4"/>
</linearGradient>
</defs>
</svg>
