<svg width="100" height="100" viewBox="0 0 100 100" fill="none" xmlns="http://www.w3.org/2000/svg">
<path d="M17.6977 39.8701C18.0886 41.2104 18.6311 42.5029 19.3172 43.7155L17.3626 46.1808C16.7243 46.9865 16.7961 48.1354 17.5142 48.8614L20.8809 52.2281C21.6069 52.9541 22.7557 53.0179 23.5615 52.3796L26.0108 50.441C27.2713 51.167 28.6116 51.7334 30.0078 52.1323L30.3748 55.2836C30.4944 56.3048 31.3561 57.0707 32.3773 57.0707H37.1402C38.1613 57.0707 39.023 56.3047 39.1426 55.2836L39.4937 52.244C40.9935 51.8531 42.4296 51.2707 43.7779 50.5128L46.1474 52.3876C46.9531 53.0258 48.102 52.954 48.828 52.236L52.1947 48.8693C52.9207 48.1433 52.9845 46.9944 52.3463 46.1887L50.5034 43.8511C51.2693 42.5267 51.8676 41.1146 52.2665 39.6387L55.1067 39.3116C56.128 39.1919 56.8938 38.3303 56.8938 37.3091V32.5462C56.8938 31.525 56.1279 30.6634 55.1067 30.5437L52.3064 30.2166C51.9234 28.7566 51.349 27.3605 50.6151 26.0521L52.3384 23.8741C52.9766 23.0683 52.9048 21.9195 52.1868 21.1934L48.8281 17.8347C48.1021 17.1087 46.9532 17.0449 46.1474 17.6831L44.0333 19.3585C42.661 18.5527 41.193 17.9384 39.6533 17.5236L39.3342 14.7871C39.2145 13.7659 38.3529 13 37.3317 13H32.5688C31.5476 13 30.686 13.7659 30.5663 14.7871L30.2472 17.5236C28.6676 17.9464 27.1597 18.5846 25.7556 19.4223L23.5616 17.6831C22.7558 17.0449 21.607 17.1167 20.881 17.8347L17.5143 21.2014C16.7883 21.9274 16.7244 23.0763 17.3627 23.882L19.1976 26.2037C18.4636 27.528 17.9052 28.9401 17.5382 30.4081L14.6023 30.7432C13.5811 30.8628 12.8152 31.7245 12.8152 32.7457V37.5085C12.8152 38.5297 13.5811 39.3914 14.6023 39.511L17.6977 39.8701ZM34.9542 26.9856C39.2942 26.9856 42.8285 30.5199 42.8285 34.8599C42.8285 39.2 39.2942 42.7342 34.9542 42.7342C30.6142 42.7342 27.0798 39.2 27.0798 34.8599C27.0798 30.5199 30.6141 26.9856 34.9542 26.9856Z" fill="url(#paint0_linear_113_6195)"/>
<path opacity="0.4" fill-rule="evenodd" clip-rule="evenodd" d="M79.5273 38.9207L82.0404 41.0429C82.8143 41.6971 82.9739 42.83 82.3994 43.6755L81.3065 45.3189C82.0005 46.3402 82.559 47.4411 82.9739 48.6059L84.9764 48.6697C85.9896 48.7016 86.8113 49.4915 86.8991 50.4967L87.1783 53.7757C87.2581 54.781 86.572 55.6985 85.5827 55.8979L83.5882 56.3048C83.365 57.5335 82.974 58.7302 82.4394 59.8631L83.8994 61.4107C84.5934 62.1447 84.6253 63.2856 83.9712 64.0594L81.8491 66.5725C81.1948 67.3464 80.07 67.506 79.2243 66.9475L77.4132 65.7508C76.3681 66.4608 75.2353 67.0352 74.0386 67.458L73.9668 69.66C73.9348 70.6733 73.145 71.495 72.1398 71.5827L68.8608 71.862C67.8556 71.9417 66.9381 71.2556 66.7387 70.2664L66.2838 68.0165C65.119 67.7932 63.9862 67.4182 62.9092 66.9156L61.2657 68.4553C60.5317 69.1494 59.3909 69.1813 58.6169 68.5271L56.1038 66.405C55.3301 65.7508 55.1705 64.6259 55.729 63.7802L56.9814 61.8894C56.3353 60.9401 55.8008 59.9268 55.3938 58.8578L53.152 58.786C52.1388 58.7541 51.317 57.9643 51.2293 56.9591L50.95 53.6801C50.8703 52.6748 51.5564 51.7573 52.5456 51.5578L54.6199 51.135C54.8273 49.9145 55.1863 48.7256 55.689 47.5928L54.2369 46.0451C53.5429 45.3111 53.511 44.1703 54.1653 43.3964L56.2874 40.8674C56.9415 40.0935 58.0664 39.9339 58.9122 40.4924L60.5715 41.5934C61.6566 40.8115 62.8453 40.1892 64.1059 39.7345L64.1696 37.7878C64.2016 36.7746 64.9914 35.9529 65.9966 35.8651L69.2756 35.5859C70.281 35.5061 71.1985 36.1922 71.3979 37.1815L71.7887 39.0962C73.0732 39.3276 74.3178 39.7265 75.4905 40.2929L76.8787 38.9925C77.6126 38.2984 78.7535 38.2665 79.5273 38.9207ZM62.7176 54.1189C63.0128 57.6611 66.1403 60.3019 69.6826 59.9986C73.2246 59.7035 75.8655 56.5761 75.5623 53.0338C75.2672 49.4916 72.1396 46.8508 68.5974 47.154C65.0553 47.4492 62.4144 50.5766 62.7176 54.1189ZM27.3828 70.785C27.3908 69.7717 28.1647 68.9261 29.1699 68.8224L30.566 68.6788C30.8213 67.6974 31.2122 66.7641 31.7068 65.8865L30.8532 64.7854C30.2309 63.9797 30.3107 62.8468 31.0367 62.1368L32.4887 60.7166C33.2147 60.0067 34.3477 59.9587 35.1375 60.597L36.1347 61.4107C37.0761 60.8683 38.0894 60.4534 39.1424 60.1822L39.3019 58.9375C39.4297 57.9323 40.2913 57.1824 41.3045 57.1983L43.323 57.2223C44.3362 57.2302 45.1818 58.004 45.2856 59.0093L45.4133 60.2619C46.4344 60.5491 47.4078 60.9719 48.3172 61.5224L49.2826 60.7805C50.0883 60.1581 51.2214 60.2379 51.9314 60.964L53.3435 62.408C54.0535 63.134 54.1014 64.2669 53.4631 65.0567L52.6573 66.046C53.136 66.9236 53.5029 67.865 53.7503 68.8383L55.0428 69.0058C56.048 69.1335 56.7979 69.9952 56.7819 71.0083L56.7581 73.0268C56.75 74.0401 55.9762 74.8857 54.971 74.9894L53.6466 75.1251C53.3674 76.1064 52.9604 77.0398 52.4339 77.9174L53.2877 79.0264C53.9099 79.8322 53.8301 80.9652 53.1041 81.6751L51.6601 83.0872C50.9341 83.7973 49.8011 83.8452 49.0113 83.2069L47.8944 82.3054C46.985 82.8 46.0276 83.1749 45.0223 83.4223L44.8388 84.8743C44.7111 85.8796 43.8494 86.6295 42.8363 86.6135L40.8178 86.5896C39.8046 86.5816 38.9589 85.8078 38.8552 84.8025L38.6956 83.2707C37.7702 82.9996 36.8846 82.6086 36.0469 82.1139L34.8583 83.0314C34.0525 83.6537 32.9196 83.5739 32.2095 82.8479L30.7974 81.4039C30.0874 80.6779 30.0395 79.5449 30.6778 78.7552L31.6351 77.5744C31.1804 76.7606 30.8293 75.899 30.582 74.9974L29.0981 74.806C28.0929 74.6783 27.3429 73.8167 27.3589 72.8035L27.3828 70.785ZM47.3838 71.8541C47.4156 68.958 45.0941 66.5725 42.198 66.5406C39.302 66.5088 36.9166 68.8304 36.8846 71.7263C36.8528 74.6225 39.1743 77.0079 42.0703 77.0398C44.9664 77.0716 47.3519 74.7501 47.3838 71.8541Z" fill="url(#paint1_linear_113_6195)"/>
<defs>
<linearGradient id="paint0_linear_113_6195" x1="56.8938" y1="57.0707" x2="23.0067" y2="6.20973" gradientUnits="userSpaceOnUse">
<stop stop-color="#273DD2"/>
<stop offset="0.775" stop-color="#6BB9EC"/>
<stop offset="1" stop-color="#7AC4F4"/>
</linearGradient>
<linearGradient id="paint1_linear_113_6195" x1="87.1846" y1="86.6138" x2="50.6479" y2="22.3406" gradientUnits="userSpaceOnUse">
<stop stop-color="#273DD2"/>
<stop offset="0.775" stop-color="#6BB9EC"/>
<stop offset="1" stop-color="#7AC4F4"/>
</linearGradient>
</defs>
</svg>
