<svg width="80" height="80" viewBox="0 0 80 80" fill="none" xmlns="http://www.w3.org/2000/svg">
<path d="M69.0143 10.8089C68.9614 10.5705 68.776 10.3851 68.5508 10.3189C60.7907 8.42525 42.8735 15.179 33.1667 24.8858C31.4319 26.6073 29.856 28.4745 28.4523 30.4609C25.4595 30.196 22.4667 30.4212 19.9109 31.5335C12.7069 34.6985 10.6146 42.9751 10.0187 46.5241C9.89949 47.2127 10.363 47.8749 11.0648 47.9941C11.184 48.0073 11.3032 48.0205 11.4224 48.0073L22.9832 46.736C22.9964 47.61 23.0494 48.484 23.1421 49.3448C23.195 49.9407 23.4731 50.5101 23.8969 50.9339L28.3729 55.3967C28.7966 55.8204 29.3661 56.0985 29.962 56.1515C30.8228 56.2442 31.6835 56.2972 32.5575 56.3104L31.2862 67.8579C31.2068 68.5598 31.7232 69.1954 32.4251 69.2616C32.5443 69.2749 32.6635 69.2749 32.7694 69.2484C36.3184 68.679 44.6083 66.5866 47.76 59.3827C48.8724 56.8269 49.0975 53.8473 48.8459 50.8677C50.8455 49.464 52.7127 47.8749 54.4343 46.1533C64.1676 36.473 70.8815 18.9531 69.0143 10.8089ZM53.6927 34.5926C51.2163 37.0689 47.1906 37.0822 44.7142 34.5926C42.2246 32.1162 42.2246 28.0905 44.7142 25.6009C47.1906 23.1113 51.2163 23.1113 53.7059 25.6009C56.1823 28.0905 56.1823 32.1162 53.6927 34.5926Z" fill="url(#paint0_linear_64_21227)"/>
<path opacity="0.4" d="M28.0683 58.6279C27.34 59.3562 26.1746 59.6343 24.7709 59.8859C21.6192 60.4156 18.8383 57.7009 19.4077 54.5227C19.6196 53.3176 20.2685 51.6225 20.6657 51.2253C20.8909 51.0001 20.9041 50.6293 20.679 50.4042C20.5465 50.2718 20.3744 50.2056 20.189 50.2321C18.4277 50.444 16.7857 51.2518 15.5409 52.4966C12.4156 55.6218 12.1243 67.1826 12.1243 67.1826C12.1243 67.1826 23.6983 66.8912 26.8103 63.766C28.0683 62.5079 28.8629 60.8791 29.0748 59.1046C29.1277 58.5617 28.4524 58.2306 28.0683 58.6279Z" fill="url(#paint1_linear_64_21227)"/>
<defs>
<linearGradient id="paint0_linear_64_21227" x1="69.3266" y1="69.2703" x2="23.7656" y2="0.835435" gradientUnits="userSpaceOnUse">
<stop stop-color="#273DD2"/>
<stop offset="0.775" stop-color="#6BB9EC"/>
<stop offset="1" stop-color="#7AC4F4"/>
</linearGradient>
<linearGradient id="paint1_linear_64_21227" x1="29.0777" y1="67.1826" x2="16.0379" y2="47.6179" gradientUnits="userSpaceOnUse">
<stop stop-color="#273DD2"/>
<stop offset="0.775" stop-color="#6BB9EC"/>
<stop offset="1" stop-color="#7AC4F4"/>
</linearGradient>
</defs>
</svg>
