<svg width="100" height="100" viewBox="0 0 100 100" fill="none" xmlns="http://www.w3.org/2000/svg">
<path opacity="0.4" d="M88.7132 52.9124C88.8368 55.866 87.7838 58.748 85.7852 60.9262C83.7865 63.1044 81.0055 64.4009 78.0522 64.5312C77.8795 64.5392 77.7071 64.5432 77.535 64.5432C76.7503 64.5427 75.968 64.4577 75.2014 64.2899C72.927 67.8016 69.9447 70.7999 66.4452 73.093C62.9457 75.3862 59.0061 76.9236 54.8785 77.6071C54.3903 79.0414 53.4163 80.26 52.1249 81.0523C50.8334 81.8447 49.3058 82.1609 47.806 81.9463C46.3061 81.7318 44.9284 81 43.9109 79.8774C42.8934 78.7548 42.3001 77.312 42.2336 75.7983C42.167 74.2847 42.6314 72.7954 43.5465 71.5878C44.4616 70.3803 45.7698 69.5304 47.245 69.1851C48.7202 68.8397 50.2697 69.0207 51.6257 69.6966C52.9816 70.3726 54.0588 71.501 54.671 72.887C60.4822 71.8122 65.732 68.7323 69.5054 64.1841C73.2789 59.6359 75.3367 53.9078 75.3202 47.998C75.3202 34.0363 63.9616 22.6777 49.9999 22.6777C36.0382 22.6777 24.6796 34.0363 24.6796 47.998C24.6788 52.3152 25.7822 56.5609 27.8847 60.3315C27.956 60.4559 28.0095 60.5897 28.0436 60.729C28.2467 61.2935 28.225 61.9144 27.983 62.4633C27.741 63.0122 27.2972 63.4471 26.7435 63.6779C25.3876 64.2485 23.9314 64.5423 22.4603 64.5421C22.2872 64.5421 22.1137 64.5381 21.9399 64.5301C18.9878 64.3981 16.2086 63.1009 14.2115 60.9229C12.2145 58.7448 11.1626 55.8637 11.2866 52.9113C11.3364 51.734 11.3086 50.6835 11.2814 49.6677C11.2561 48.7113 11.2297 47.7223 11.2732 46.6902C11.4028 43.8075 12.6428 41.0868 14.7336 39.0978C16.8243 37.1089 19.6035 36.0061 22.4891 36.0204C27.1228 25.4185 37.7093 17.9902 49.9999 17.9902C62.2905 17.9902 72.8771 25.4185 77.5108 36.0205C80.3967 36.0041 83.1768 37.1059 85.2679 39.0949C87.359 41.0839 88.5985 43.8054 88.7264 46.6885C88.77 47.7221 88.7438 48.711 88.7182 49.6674C88.6913 50.6834 88.6633 51.7343 88.7132 52.9124Z" fill="url(#paint0_linear_113_187)"/>
<path d="M69.3133 47.998C69.3121 51.0095 68.6194 53.9804 67.2884 56.6818C65.9574 59.3832 64.0237 61.7428 61.6365 63.5786C59.2493 65.4145 56.4724 66.6775 53.5198 67.2704C50.5673 67.8632 47.518 67.77 44.6072 66.998L36.6508 71.5928C36.2493 71.8247 35.7881 71.9322 35.3255 71.902C34.8629 71.8717 34.4197 71.7049 34.0519 71.4227C33.6841 71.1404 33.4083 70.7555 33.2593 70.3165C33.1103 69.8775 33.0948 69.4042 33.2148 68.9564L35.2483 61.3708C31.8808 57.7309 30.0071 52.9567 30 47.998C30 37.1561 38.8173 28.3364 49.6563 28.3364C60.4952 28.3364 69.3133 37.1561 69.3133 47.998ZM44.1914 47.998C44.1914 47.3764 43.9445 46.7802 43.5049 46.3407C43.0654 45.9012 42.4693 45.6542 41.8477 45.6542H41.8438C41.3804 45.6551 40.9277 45.7933 40.5428 46.0514C40.158 46.3094 39.8583 46.6758 39.6815 47.1041C39.5048 47.5324 39.459 48.0036 39.5499 48.4579C39.6409 48.9123 39.8644 49.3295 40.1924 49.6568C40.5203 49.9842 40.938 50.2069 41.3925 50.297C41.847 50.3871 42.318 50.3404 42.746 50.1629C43.1741 49.9854 43.5398 49.685 43.7972 49.2996C44.0545 48.9143 44.1914 48.4614 44.1914 47.998ZM52.0005 47.998C52.0003 47.9213 51.9961 47.8446 51.988 47.7683C51.9806 47.6917 51.9692 47.6156 51.9538 47.5402C51.9397 47.4651 51.9209 47.391 51.8973 47.3183C51.8756 47.2449 51.8491 47.173 51.8209 47.1011C51.7928 47.0292 51.7584 46.9621 51.7225 46.8949C51.6868 46.8273 51.6477 46.7616 51.6053 46.698C51.5626 46.6337 51.5166 46.5717 51.4677 46.5121C51.4195 46.4523 51.3679 46.3955 51.3131 46.3417C51.26 46.2871 51.2022 46.2355 51.1428 46.1855C51.0833 46.1386 51.0208 46.0917 50.9567 46.0496C50.8932 46.0072 50.8275 45.9681 50.76 45.9324C50.6927 45.8964 50.6225 45.8636 50.552 45.8339C50.4817 45.8045 50.4097 45.7789 50.3366 45.7574C50.1904 45.7104 50.0395 45.68 49.8866 45.6667C49.657 45.6446 49.4255 45.6557 49.1991 45.6996C49.1237 45.7149 49.0492 45.7342 48.9758 45.7574C48.9025 45.7789 48.8306 45.8044 48.7602 45.8339C48.6898 45.8636 48.6195 45.8964 48.5523 45.9324C48.4852 45.9683 48.4195 46.0074 48.3553 46.0496C48.2911 46.0917 48.2288 46.1386 48.1711 46.1855C48.1102 46.2355 48.0539 46.2871 47.9992 46.3417C47.9444 46.3955 47.8927 46.4524 47.8444 46.5121C47.796 46.5717 47.7507 46.6337 47.7086 46.698C47.6657 46.7615 47.626 46.8272 47.5898 46.8949C47.5538 46.9618 47.5214 47.0307 47.4928 47.1011C47.4632 47.1722 47.4371 47.2446 47.4147 47.3183C47.393 47.3902 47.3742 47.4652 47.3586 47.5402C47.3432 47.6156 47.3316 47.6917 47.3241 47.7683C47.3164 47.8449 47.3131 47.9214 47.3131 47.998C47.3131 48.0746 47.3164 48.1527 47.3241 48.2292C47.3317 48.3053 47.3433 48.3809 47.3586 48.4558C47.3742 48.5308 47.393 48.6058 47.4147 48.6792C47.4371 48.7524 47.4632 48.8244 47.4928 48.8949C47.5214 48.9658 47.5538 49.0352 47.5898 49.1027C47.6256 49.1699 47.6664 49.2355 47.7086 49.2996C47.7507 49.3633 47.796 49.4248 47.8444 49.4839C47.8931 49.5438 47.9447 49.6012 47.9992 49.6558C48.0539 49.7089 48.1102 49.7621 48.1711 49.8105C48.2299 49.8593 48.2914 49.9047 48.3553 49.9464C48.4195 49.9886 48.485 50.0292 48.5523 50.0652C48.688 50.1359 48.8297 50.1945 48.9758 50.2402C49.0491 50.2621 49.1241 50.2808 49.1991 50.2964C49.3497 50.3273 49.5031 50.3424 49.6569 50.3417C50.2777 50.3401 50.8729 50.0936 51.3131 49.6558C51.4211 49.5462 51.5189 49.4269 51.6053 49.2996C51.6475 49.2355 51.6866 49.1699 51.7225 49.1027C51.7584 49.0355 51.7913 48.9652 51.8209 48.8949C51.8506 48.8246 51.8756 48.7511 51.8973 48.6792C51.9207 48.606 51.9396 48.5314 51.9538 48.4558C51.969 48.3809 51.9805 48.3053 51.988 48.2292C51.996 48.1523 52.0004 48.0753 52.0005 47.998ZM59.813 47.998C59.813 47.3764 59.566 46.7802 59.1265 46.3407C58.687 45.9012 58.0908 45.6542 57.4692 45.6542H57.4647C57.0013 45.6551 56.5486 45.7934 56.1638 46.0514C55.779 46.3095 55.4793 46.6759 55.3026 47.1042C55.1259 47.5326 55.0801 48.0037 55.1711 48.458C55.262 48.9123 55.4856 49.3295 55.8135 49.6569C56.1415 49.9842 56.5591 50.207 57.0136 50.297C57.4682 50.3871 57.9392 50.3404 58.3672 50.1629C58.7952 49.9854 59.161 49.685 59.4183 49.2996C59.6756 48.9143 59.813 48.4613 59.813 47.998Z" fill="url(#paint1_linear_113_187)"/>
<defs>
<linearGradient id="paint0_linear_113_187" x1="88.7498" y1="82.0118" x2="43.6787" y2="0.138351" gradientUnits="userSpaceOnUse">
<stop stop-color="#273DD2"/>
<stop offset="0.775" stop-color="#6BB9EC"/>
<stop offset="1" stop-color="#7AC4F4"/>
</linearGradient>
<linearGradient id="paint1_linear_113_187" x1="69.3133" y1="71.907" x2="34.6162" y2="24.9271" gradientUnits="userSpaceOnUse">
<stop stop-color="#273DD2"/>
<stop offset="0.775" stop-color="#6BB9EC"/>
<stop offset="1" stop-color="#7AC4F4"/>
</linearGradient>
</defs>
</svg>
